<svg
  width="31"
  height="36"
  viewBox="0 0 31 36"
  fill="none"
  xmlns="http://www.w3.org/2000/svg"
>
  <path
    d="M25.0907 19.1447C25.0487 14.5967 28.9101 12.384 29.0867 12.281C26.8998 9.17231 23.5102 8.74756 22.3191 8.7137C19.4722 8.42159 16.7108 10.3746 15.2606 10.3746C13.7814 10.3746 11.5482 8.74192 9.14133 8.7899C6.04409 8.83646 3.14659 10.5848 1.55744 13.2999C-1.72216 18.8357 0.723793 26.9708 3.8659 31.4455C5.43767 33.637 7.27431 36.0839 9.67828 35.9978C12.0302 35.9032 12.9087 34.5359 15.7468 34.5359C18.559 34.5359 19.3839 35.9978 21.8357 35.9428C24.3598 35.9032 25.9489 33.7414 27.4657 31.5302C29.2821 29.0184 30.0115 26.5447 30.0405 26.4177C29.9811 26.3979 25.1384 24.5959 25.0907 19.1447Z"
    fill="#0A1F44"
  />
  <path
    d="M20.4593 5.77009C21.7242 4.22773 22.5897 2.12939 22.3495 0C20.5186 0.079023 18.229 1.23473 16.9105 2.74323C15.744 4.07251 14.7019 6.25128 14.9711 8.30024C17.0277 8.44982 19.1393 7.28846 20.4593 5.77009Z"
    fill="#0A1F44"
  />
</svg>
