<svg
  width="53"
  height="91"
  viewBox="0 0 53 91"
  fill="none"
  xmlns="http://www.w3.org/2000/svg"
>
  <path
    d="M25.3526 22.9287C24.9379 22.8379 24.5225 22.7463 24.107 22.6546C21.9985 25.04 20.5939 27.8167 19.8944 30.9534C19.2475 33.8517 19.802 35.6135 21.4569 35.7174C23.8152 35.8657 24.3641 33.9376 24.5963 32.2424C25.0197 29.1619 25.1189 26.0356 25.3526 22.9287ZM29.7166 17.271C29.941 20.5263 30.4778 23.5857 30.2712 26.5946C30.0424 29.9209 29.5575 33.3574 28.4092 36.4586C27.0626 40.096 23.5844 41.5192 20.1636 40.6735C16.4941 39.7664 14.4149 36.8208 14.7024 32.6912C15.0732 27.3566 17.428 22.8186 20.6244 18.6607C21.4041 17.6452 22.2627 16.69 23.037 15.767C21.1364 7.81592 18.5516 6.58039 0.426407 4.91941C0.157756 1.92803 2.2336 1.18031 4.48756 0.712961C12.0422 -0.852146 22.2599 3.38747 26.4832 9.79653C26.9115 10.445 27.3078 11.114 27.7999 11.9058C28.8659 11.6225 29.7733 11.3354 30.6995 11.1438C37.3826 9.76245 43.5283 12.2224 46.6323 18.2992C48.4256 21.8082 49.5633 25.7964 50.2401 29.7002C51.4082 36.4331 50.7151 43.2363 49.2451 49.8677C47.4698 57.8812 45.3066 65.8079 43.3209 73.7743C43.0242 74.9675 42.7841 76.1747 42.4368 77.7376C45.0849 76.6518 47.2077 75.5931 49.4503 74.9596C50.306 74.7174 52.1858 75.2891 52.2902 75.7713C52.5118 76.8067 51.9167 78.0339 51.5758 79.1587C51.4991 79.4101 51.0965 79.5657 50.838 79.7574C46.7127 82.8047 42.5405 85.7894 38.4742 88.9141C34.8836 91.6738 33.6941 91.6347 30.958 88.0834C27.8184 84.0078 26.357 79.2626 25.7518 74.236C25.5564 72.6103 25.6274 70.9188 28.1642 70.5823C31.6269 73.6004 31.1404 78.7511 34.0393 82.89C34.6757 81.2311 35.2082 80.1416 35.5157 78.9919C38.1794 69.0418 41.121 59.1496 43.3118 49.0945C44.4992 43.6462 44.7639 37.9115 44.7206 32.312C44.6938 28.8707 43.7578 25.2461 42.4133 22.0467C40.1623 16.6852 35.7719 15.1752 29.7166 17.271Z"
    fill="#4340FC"
  />
</svg>
