<svg
  width="96"
  height="28"
  viewBox="0 0 96 28"
  fill="none"
  xmlns="http://www.w3.org/2000/svg"
>
  <path
    d="M2.14293 18.2154C2.14184 19.5281 2.4462 20.823 3.03193 21.9977C3.61767 23.1725 4.4687 24.1948 5.51772 24.9839C5.24803 25.5868 4.77959 26.0789 4.19068 26.378C3.60176 26.6771 2.92804 26.765 2.2821 26.627C1.63617 26.4891 1.05714 26.1336 0.641768 25.6201C0.226401 25.1065 -0.000139749 24.466 6.46771e-08 23.8055V2.88467C6.46771e-08 2.11961 0.30392 1.38588 0.844901 0.8449C1.38588 0.30392 2.11961 0 2.88467 0C3.64973 0 4.38346 0.30392 4.92444 0.8449C5.46542 1.38588 5.76934 2.11961 5.76934 2.88467V11.2645C4.64906 12.0447 3.73415 13.0843 3.10269 14.2947C2.47122 15.5051 2.14193 16.8502 2.14293 18.2154Z"
    fill="#14309D"
  />
  <path
    d="M5.76948 11.2645V23.8055C5.77038 24.2117 5.6846 24.6134 5.51786 24.9839C4.44867 24.1782 3.58555 23.1308 2.9992 21.9273C2.41284 20.7238 2.11994 19.3985 2.14449 18.06C2.16904 16.7215 2.51034 15.4079 3.14043 14.2267C3.77051 13.0455 4.67147 12.0304 5.76948 11.2645Z"
    fill="#387EC2"
  />
  <path
    d="M19.0933 18.2154C19.0933 19.791 18.6542 21.3354 17.8251 22.6752C16.996 24.015 15.8098 25.0972 14.3998 25.8002C12.9897 26.5033 11.4116 26.7993 9.84257 26.6551C8.27359 26.5109 6.77587 25.9321 5.51758 24.9838C5.68432 24.6134 5.7701 24.2117 5.76919 23.8054V11.2645C7.03975 10.3781 8.52896 9.85688 10.075 9.75755C11.621 9.65822 13.1647 9.98457 14.5382 10.7011C15.9117 11.4177 17.0626 12.497 17.8657 13.8218C18.6688 15.1466 19.0934 16.6662 19.0933 18.2154Z"
    fill="#60D7D9"
  />
  <path
    d="M23.4999 18.2154C23.4988 19.5281 23.8031 20.823 24.3889 21.9977C24.9746 23.1725 25.8256 24.1948 26.8747 24.9839C26.605 25.5868 26.1365 26.0789 25.5476 26.378C24.9587 26.6771 24.285 26.765 23.639 26.627C22.9931 26.4891 22.4141 26.1336 21.9987 25.6201C21.5833 25.1065 21.3568 24.466 21.3569 23.8055V2.88467C21.3569 2.11961 21.6609 1.38588 22.2018 0.8449C22.7428 0.30392 23.4765 0 24.2416 0C25.0067 0 25.7404 0.30392 26.2814 0.8449C26.8224 1.38588 27.1263 2.11961 27.1263 2.88467V11.2645C26.006 12.0447 25.0911 13.0843 24.4596 14.2947C23.8282 15.5051 23.4989 16.8502 23.4999 18.2154Z"
    fill="#14309D"
  />
  <path
    d="M27.1264 11.2645V23.8055C27.1273 24.2117 27.0415 24.6134 26.8748 24.9839C25.8056 24.1782 24.9425 23.1308 24.3561 21.9273C23.7698 20.7238 23.4769 19.3985 23.5014 18.06C23.526 16.7215 23.8673 15.4079 24.4974 14.2267C25.1274 13.0455 26.0284 12.0304 27.1264 11.2645Z"
    fill="#387EC2"
  />
  <path
    d="M40.4502 18.2154C40.4503 19.791 40.0111 21.3354 39.182 22.6752C38.3529 24.015 37.1667 25.0972 35.7567 25.8002C34.3466 26.5032 32.7685 26.7993 31.1995 26.6551C29.6305 26.5108 28.1328 25.9321 26.8745 24.9838C27.0413 24.6134 27.127 24.2117 27.1261 23.8054V11.2645C28.3967 10.3781 29.8859 9.85688 31.4319 9.75755C32.9779 9.65823 34.5216 9.98457 35.8951 10.7011C37.2687 11.4177 38.4195 12.497 39.2226 13.8218C40.0257 15.1466 40.4503 16.6662 40.4502 18.2154Z"
    fill="#60D7D9"
  />
  <path
    d="M54.2008 12.4365C54.8885 12.9867 55.7687 13.2618 56.8414 13.2618C57.2614 13.2603 57.6804 13.2214 58.0935 13.1455C58.5053 13.0726 58.9101 12.9645 59.3034 12.8221V11.4183C58.6042 11.7394 57.8448 11.9086 57.0754 11.9145C56.4241 11.9145 55.9083 11.7515 55.5282 11.4254C55.3427 11.2706 55.1949 11.0756 55.0959 10.8552C54.9969 10.6348 54.9494 10.3948 54.9568 10.1533H59.8125V9.7265C59.8125 8.38854 59.4641 7.38919 58.7672 6.72843C58.1982 6.1876 57.4509 5.9168 56.5252 5.91602C55.48 5.91602 54.6319 6.26481 53.9809 6.9624C53.3296 7.65842 53.0039 8.53393 53.0039 9.58893C53.0039 10.8457 53.4028 11.7949 54.2008 12.4365ZM55.3553 7.70424C55.4808 7.54453 55.642 7.41653 55.826 7.33055C56.01 7.24458 56.2116 7.20303 56.4146 7.20927C56.6102 7.20563 56.8043 7.24298 56.9845 7.31891C57.1647 7.39485 57.327 7.50769 57.461 7.65016C57.7443 7.94291 57.8862 8.35088 57.8866 8.87407H54.9568C54.9483 8.44946 55.0894 8.03539 55.3553 7.70424Z"
    fill="#354056"
  />
  <path
    d="M63.3069 13.2619C63.6813 13.2664 64.0537 13.206 64.4074 13.0832C64.902 12.9148 65.3148 12.5659 65.5631 12.1062V13.1525H67.3926V8.65426C67.3926 7.93002 67.2456 7.36137 66.9517 6.9483C66.4567 6.26051 65.5538 5.91642 64.2429 5.91602C63.7936 5.91348 63.3449 5.94808 62.9014 6.01949C62.4658 6.09645 62.0395 6.2186 61.6293 6.38397V7.85592C61.9975 7.63953 62.3928 7.47308 62.805 7.36095C63.167 7.26925 63.539 7.22303 63.9125 7.22338C64.3119 7.20984 64.7065 7.31412 65.0471 7.52322C65.3539 7.72307 65.5075 8.02758 65.5079 8.43674L65.522 8.73659H64.311C63.0083 8.73659 62.0638 8.98427 61.4775 9.47964C61.0096 9.8735 60.7756 10.41 60.7756 11.0892C60.7613 11.6284 60.9588 12.1518 61.3259 12.5471C61.775 13.0232 62.4354 13.2615 63.3069 13.2619ZM63.6044 10.0298C63.9148 9.94754 64.4442 9.906 65.1928 9.90522H65.5079V10.0863C65.5079 10.7505 65.3346 11.2487 64.9882 11.5806C64.6955 11.8581 64.3028 11.9968 63.8102 11.9968C63.3998 11.9968 63.0988 11.8996 62.9072 11.7052C62.8275 11.6204 62.7658 11.5203 62.7258 11.411C62.6858 11.3017 62.6683 11.1854 62.6744 11.0692C62.6744 10.5425 62.9844 10.196 63.6044 10.0298Z"
    fill="#354056"
  />
  <path
    d="M72.7572 13.0562C73.2671 12.8499 73.7034 12.4952 74.0093 12.038V13.1526H75.8105V6.02663H73.9399V9.80419C73.9564 10.3088 73.7874 10.8019 73.4649 11.1904C73.3202 11.3689 73.1367 11.512 72.9282 11.6088C72.7198 11.7056 72.492 11.7535 72.2622 11.7488C71.739 11.7488 71.3859 11.5603 71.2029 11.1833C71.0895 10.9182 71.0376 10.6307 71.0512 10.3427V6.02661H69.1807V10.6342C69.1807 11.4878 69.3962 12.1391 69.8273 12.5883C70.2576 13.0374 70.8858 13.2619 71.712 13.2619C72.0704 13.2619 72.4255 13.192 72.7572 13.0562Z"
    fill="#354056"
  />
  <path
    d="M81.7666 11.7628C81.5345 11.8532 81.2865 11.8952 81.0376 11.8862C80.6344 11.8862 80.3686 11.7671 80.2405 11.5288C80.157 11.3725 80.1159 11.075 80.1159 10.6341V7.40207H81.7666V6.02649H80.1162C80.637 5.50566 80.9626 5.00833 81.1237 4.01489H79.2567C78.9888 5.53323 78.2216 6.02605 76.9247 6.02649H76.8428V7.40207H78.2454V11.0609C78.2454 11.6205 78.3508 12.0743 78.5616 12.4224C78.9014 12.982 79.4885 13.2618 80.3229 13.2618C80.5735 13.2607 80.8237 13.2423 81.0718 13.2066C81.334 13.1701 81.5656 13.129 81.7666 13.0831L81.7666 11.7628Z"
    fill="#354056"
  />
  <path
    d="M84.834 13.9638C84.7464 14.2174 84.5773 14.4348 84.3532 14.5822C84.1035 14.7129 83.8234 14.7746 83.5419 14.761C83.2911 14.7589 83.043 14.7078 82.8118 14.6105L82.6742 16.0002C82.8494 16.0617 83.029 16.1096 83.2115 16.1436C83.393 16.1768 83.5772 16.1929 83.7618 16.1918C84.687 16.1918 85.3886 15.9535 85.8663 15.477C86.1414 15.2019 86.4118 14.7159 86.6775 14.0191L89.6897 6.02661H87.7921L86.4941 9.90411L86.0485 11.3185L85.9804 11.322L85.5818 9.96055L84.2521 6.02661H82.1934L84.9998 13.5511L84.834 13.9638Z"
    fill="#354056"
  />
  <path
    d="M50.0792 19.7109C50.481 19.5957 50.8452 19.3764 51.1352 19.0754C51.5296 18.65 51.7271 18.0857 51.7275 17.3826C51.7275 16.3699 51.2745 15.656 50.3685 15.2409C49.8368 14.9998 49.1662 14.8795 48.3568 14.8799H45.0293V25.0069H48.2269C49.7317 25.0069 50.8215 24.6644 51.4962 23.9794C51.9686 23.4971 52.2048 22.8896 52.2048 22.1567C52.2048 21.4903 52.0049 20.9429 51.6051 20.5147C51.2009 20.0833 50.6635 19.8003 50.0792 19.7109ZM47.0844 16.4713H48.0006C48.6597 16.4713 49.13 16.6304 49.4115 16.9486C49.592 17.1675 49.6853 17.4453 49.6736 17.7288C49.6784 18.0142 49.58 18.2916 49.3966 18.5103C49.1345 18.8293 48.698 18.9884 48.0872 18.9876H47.0844L47.0844 16.4713ZM49.5648 23.031C49.252 23.2869 48.806 23.4151 48.2269 23.4155H47.0844V20.579H48.2269C48.588 20.5693 48.9473 20.6333 49.2829 20.7669C49.7837 20.9895 50.0343 21.3996 50.0347 21.9972C50.0427 22.1943 50.0043 22.3905 49.9227 22.57C49.8411 22.7495 49.7185 22.9074 49.5648 23.031Z"
    fill="#354056"
  />
  <path
    d="M50.0792 7.85656C50.481 7.74131 50.8452 7.52207 51.1352 7.221C51.5296 6.79564 51.7271 6.23138 51.7275 5.52822C51.7275 4.51552 51.2745 3.80164 50.3685 3.38658C49.8368 3.14545 49.1662 3.02509 48.3568 3.02551H45.0293V13.1525H48.2269C49.7317 13.1525 50.8215 12.81 51.4962 12.125C51.9686 11.6427 52.2048 11.0352 52.2048 10.3024C52.2048 9.6359 52.0049 9.08854 51.6051 8.66029C51.2009 8.22897 50.6635 7.94592 50.0792 7.85656ZM47.0844 4.61691H48.0006C48.6597 4.61691 49.13 4.77601 49.4115 5.0942C49.592 5.31312 49.6853 5.59095 49.6736 5.87443C49.6784 6.15978 49.58 6.43727 49.3966 6.65591C49.1345 6.97493 48.698 7.13403 48.0872 7.1332H47.0844L47.0844 4.61691ZM49.5648 11.1766C49.252 11.4326 48.806 11.5607 48.2269 11.5611H47.0844V8.72459H48.2269C48.588 8.71494 48.9473 8.77889 49.2829 8.91255C49.7837 9.13511 50.0343 9.54521 50.0347 10.1429C50.0427 10.3399 50.0043 10.5361 49.9227 10.7156C49.8411 10.8952 49.7185 11.0531 49.5648 11.1766Z"
    fill="#354056"
  />
  <path
    d="M56.6053 17.9132C55.4735 17.9132 54.5884 18.2413 53.9499 18.8974C53.3114 19.5544 52.9922 20.4264 52.9922 21.5136C52.9922 22.6016 53.3114 23.4736 53.9499 24.1298C54.5873 24.7867 55.4724 25.1148 56.6053 25.114C57.729 25.114 58.6103 24.786 59.2491 24.1298C59.8865 23.474 60.2053 22.602 60.2057 21.5136C60.2057 20.4268 59.8868 19.5547 59.2491 18.8974C58.6106 18.2417 57.7294 17.9136 56.6053 17.9132ZM57.8062 23.1928C57.6636 23.379 57.4802 23.5299 57.2701 23.6341C57.06 23.7382 56.8288 23.7927 56.5943 23.7933C56.3598 23.794 56.1283 23.7408 55.9176 23.6379C55.7069 23.535 55.5227 23.3851 55.379 23.1997C55.0644 22.8044 54.9069 22.2424 54.9065 21.5136C54.9065 20.7945 55.0663 20.2351 55.3859 19.8356C55.5271 19.6461 55.7113 19.4928 55.9233 19.3884C56.1353 19.284 56.369 19.2315 56.6053 19.2351C56.8403 19.2327 57.0726 19.2865 57.2826 19.3919C57.4927 19.4973 57.6746 19.6514 57.8131 19.8413C58.1312 20.2459 58.2906 20.8033 58.2914 21.5136C58.2914 22.2328 58.1297 22.7925 57.8062 23.1928Z"
    fill="#354056"
  />
  <path
    d="M64.7637 17.9132C63.6307 17.9132 62.7452 18.2413 62.1071 18.8974C61.4687 19.5544 61.1494 20.4264 61.1494 21.5136C61.1494 22.6016 61.4687 23.4736 62.1071 24.1298C62.7456 24.7867 63.6311 25.1148 64.7637 25.114C65.8874 25.114 66.7682 24.786 67.4063 24.1298C68.0448 23.474 68.3641 22.602 68.3641 21.5136C68.3641 20.4268 68.0448 19.5547 67.4063 18.8974C66.7679 18.2417 65.887 17.9136 64.7637 17.9132ZM65.9634 23.1928C65.8209 23.379 65.6374 23.5299 65.4273 23.6341C65.2172 23.7382 64.986 23.7927 64.7515 23.7933C64.517 23.794 64.2855 23.7408 64.0748 23.6379C63.8641 23.535 63.6799 23.3851 63.5363 23.1997C63.2216 22.8044 63.0645 22.2424 63.0649 21.5136C63.0649 20.7945 63.2243 20.2351 63.5432 19.8356C63.6846 19.6461 63.869 19.4929 64.0812 19.3886C64.2934 19.2842 64.5272 19.2316 64.7637 19.2351C64.9985 19.2328 65.2306 19.2866 65.4404 19.3921C65.6503 19.4975 65.832 19.6515 65.9704 19.8413C66.2896 20.2459 66.449 20.8033 66.4487 21.5136C66.4487 22.2328 66.2869 22.7925 65.9634 23.1928Z"
    fill="#354056"
  />
  <path
    d="M75.9013 18.0216H73.798L71.6128 20.9201H71.5461V14.8799H69.7124V25.0069H71.5461V21.4595H71.6128L73.9052 25.0069H76.1445L73.3393 21.1899L75.9013 18.0216Z"
    fill="#354056"
  />
  <path d="M78.9894 15.0953H77.1558V16.9831H78.9894V15.0953Z" fill="#354056" />
  <path d="M78.9894 18.0216H77.1558V25.0069H78.9894V18.0216Z" fill="#354056" />
  <path
    d="M86.5405 18.4399C86.091 18.0884 85.5155 17.9128 84.814 17.9132C84.3691 17.9144 83.9313 18.0245 83.5388 18.2338C83.1462 18.4431 82.8109 18.7454 82.562 19.1141V18.0215H80.7964V25.0068H82.63V21.2439C82.6233 20.7769 82.7835 20.3229 83.0818 19.9635C83.2237 19.7846 83.4055 19.6414 83.6126 19.5454C83.8197 19.4493 84.0464 19.403 84.2746 19.4103C84.4465 19.4017 84.6179 19.4339 84.7749 19.5042C84.932 19.5745 85.0702 19.6809 85.1782 19.8148C85.3672 20.0581 85.4617 20.3807 85.4617 20.7852V25.0068H87.2953V20.111C87.2953 19.393 87.0437 18.836 86.5405 18.4399Z"
    fill="#354056"
  />
  <path
    d="M93.8217 18.0216L93.7814 19.1949C93.5865 18.7929 93.2605 18.4694 92.8571 18.2775C92.4366 18.0845 91.9782 17.988 91.5156 17.9952C91.1348 17.9866 90.7569 18.063 90.4094 18.2189C90.0619 18.3748 89.7535 18.6063 89.5068 18.8964C88.9317 19.543 88.6439 20.4266 88.6436 21.5472C88.6436 22.5348 88.8817 23.347 89.3581 23.9836C89.879 24.6831 90.6074 25.0331 91.5432 25.0335C91.8969 25.0405 92.2487 24.9811 92.5805 24.8583C93.0875 24.6579 93.4947 24.2651 93.7134 23.7657V24.6831C93.7134 25.3031 93.5313 25.7706 93.1671 26.0857C92.8041 26.4003 92.3108 26.557 91.6908 26.557C91.3304 26.5541 90.9722 26.5022 90.6258 26.4026C90.249 26.2958 89.8832 26.1534 89.5333 25.9773L89.3858 27.5148C89.8076 27.6842 90.2455 27.8104 90.6927 27.8917C91.1206 27.9652 91.554 28.0015 91.9881 28C93.4265 28 94.4334 27.5551 95.0088 26.6654C95.3673 26.1076 95.5467 25.3704 95.5471 24.4537V18.0216H93.8217ZM93.2893 22.9924C93.1672 23.1749 93.0014 23.324 92.8069 23.4261C92.6125 23.5282 92.3956 23.5799 92.176 23.5767C91.9744 23.5832 91.7735 23.5485 91.5858 23.4746C91.3981 23.4007 91.2275 23.2891 91.0845 23.1468C90.7342 22.7976 90.5586 22.251 90.5579 21.5068C90.5579 20.9075 90.6908 20.4192 90.9566 20.042C91.0746 19.8637 91.2361 19.7184 91.4259 19.6198C91.6156 19.5211 91.8274 19.4725 92.0411 19.4784C92.5805 19.4784 92.9942 19.6551 93.2824 20.0086C93.5693 20.3624 93.713 20.8172 93.7134 21.3731C93.7134 22.0635 93.572 22.6032 93.2893 22.9924Z"
    fill="#354056"
  />
</svg>
