<svg
  width="32"
  height="22"
  viewBox="0 0 32 22"
  fill="none"
  xmlns="http://www.w3.org/2000/svg"
>
  <path
    d="M8.36288 21.58C12.065 21.58 15.0661 18.5789 15.0661 14.8768C15.0661 11.1747 12.065 8.17358 8.36288 8.17358C4.6608 8.17358 1.65967 11.1747 1.65967 14.8768C1.65967 18.5789 4.6608 21.58 8.36288 21.58Z"
    fill="#60D7D9"
  />
  <path
    d="M25.297 21.58C28.9991 21.58 32.0002 18.5789 32.0002 14.8768C32.0002 11.1747 28.9991 8.17358 25.297 8.17358C21.5949 8.17358 18.5938 11.1747 18.5938 14.8768C18.5938 18.5789 21.5949 21.58 25.297 21.58Z"
    fill="#60D7D9"
  />
  <path
    d="M2.27898 0.420044C1.02058 0.420044 0 1.44064 0 2.69904V5.02758V19.2961C0 20.5545 1.02058 21.5751 2.27898 21.5751C3.53738 21.5751 4.55798 20.5545 4.55798 19.2961V5.02758V2.69904C4.55798 1.44064 3.53738 0.420044 2.27898 0.420044Z"
    fill="#14309D"
  />
  <path
    d="M4.55788 9.35767V19.301C4.55788 19.633 4.49347 19.9451 4.35971 20.2324C2.71982 19.0236 1.66455 17.0716 1.66455 14.8768C1.66455 12.5978 2.809 10.5665 4.55788 9.35767Z"
    fill="#387EC2"
  />
  <path
    d="M19.2131 0.420044C17.9547 0.420044 16.9341 1.44064 16.9341 2.69904V5.02758V19.2961C16.9341 20.5545 17.9547 21.5751 19.2131 21.5751C20.4715 21.5751 21.4921 20.5545 21.4921 19.2961V5.02758V2.69904C21.4921 1.44064 20.4715 0.420044 19.2131 0.420044Z"
    fill="#14309D"
  />
  <path
    d="M21.492 9.35767V19.301C21.492 19.633 21.4276 19.9451 21.2938 20.2324C19.6539 19.0236 18.5986 17.0716 18.5986 14.8768C18.5986 12.5978 19.7431 10.5665 21.492 9.35767Z"
    fill="#387EC2"
  />
</svg>
