<svg
  width="20"
  height="14"
  viewBox="0 0 20 14"
  fill="none"
  xmlns="http://www.w3.org/2000/svg"
>
  <path
    d="M1.05952 9.16927C1.05899 9.81828 1.20947 10.4585 1.49907 11.0393C1.78867 11.6202 2.20945 12.1256 2.72811 12.5158C2.59477 12.8139 2.36316 13.0572 2.07198 13.2051C1.78081 13.3529 1.4477 13.3964 1.12833 13.3282C0.808964 13.26 0.522676 13.0842 0.317308 12.8303C0.111939 12.5764 -6.90955e-05 12.2597 3.19781e-08 11.9331V1.58934C3.19781e-08 1.21108 0.150266 0.848302 0.417742 0.580827C0.685217 0.313352 1.04799 0.163086 1.42626 0.163086C1.80453 0.163086 2.1673 0.313352 2.43478 0.580827C2.70225 0.848302 2.85252 1.21108 2.85252 1.58934V5.73257C2.29862 6.11831 1.84627 6.63233 1.53405 7.23077C1.22184 7.8292 1.05903 8.49428 1.05952 9.16927Z"
    fill="#14309D"
  />
  <path
    d="M2.85159 5.73291V11.9335C2.85204 12.1343 2.80963 12.333 2.72718 12.5161C2.19855 12.1178 1.7718 11.5999 1.48189 11.0049C1.19198 10.4098 1.04716 9.75458 1.0593 9.09279C1.07144 8.43099 1.24018 7.78149 1.55172 7.19748C1.86325 6.61348 2.3087 6.11158 2.85159 5.73291Z"
    fill="#387EC2"
  />
  <path
    d="M9.44072 9.1694C9.44074 9.94842 9.2236 10.712 8.81368 11.3745C8.40375 12.0369 7.81728 12.572 7.1201 12.9196C6.42293 13.2672 5.64266 13.4135 4.86691 13.3422C4.09116 13.2709 3.35065 12.9848 2.72852 12.5159C2.81096 12.3328 2.85337 12.1341 2.85292 11.9333V5.7327C3.48112 5.29443 4.21743 5.03674 4.98182 4.98763C5.74621 4.93852 6.50945 5.09987 7.18856 5.45415C7.86767 5.80843 8.43669 6.34208 8.83375 6.99709C9.23082 7.65211 9.44075 8.40343 9.44072 9.1694Z"
    fill="#60D7D9"
  />
  <path
    d="M11.6201 9.16927C11.6195 9.81828 11.77 10.4585 12.0596 11.0393C12.3492 11.6202 12.77 12.1256 13.2887 12.5158C13.1553 12.8139 12.9237 13.0572 12.6325 13.2051C12.3414 13.3529 12.0083 13.3964 11.6889 13.3282C11.3695 13.26 11.0832 13.0842 10.8779 12.8303C10.6725 12.5764 10.5605 12.2597 10.5605 11.9331V1.58934C10.5605 1.21108 10.7108 0.848302 10.9783 0.580827C11.2458 0.313352 11.6085 0.163086 11.9868 0.163086C12.3651 0.163086 12.7278 0.313352 12.9953 0.580827C13.2628 0.848302 13.4131 1.21108 13.4131 1.58934V5.73257C12.8592 6.11831 12.4068 6.63233 12.0946 7.23077C11.7824 7.8292 11.6196 8.49428 11.6201 9.16927Z"
    fill="#14309D"
  />
  <path
    d="M13.4121 5.73291V11.9335C13.4126 12.1343 13.3702 12.333 13.2877 12.5161C12.7591 12.1178 12.3323 11.5999 12.0424 11.0049C11.7525 10.4098 11.6077 9.75458 11.6198 9.09279C11.632 8.43099 11.8007 7.78149 12.1123 7.19748C12.4238 6.61348 12.8692 6.11158 13.4121 5.73291Z"
    fill="#387EC2"
  />
  <path
    d="M19.9993 9.1694C19.9993 9.94842 19.7822 10.712 19.3723 11.3745C18.9623 12.0369 18.3759 12.572 17.6787 12.9195C16.9815 13.2671 16.2013 13.4135 15.4255 13.3422C14.6498 13.2709 13.9092 12.9848 13.2871 12.5159C13.3696 12.3328 13.412 12.1341 13.4115 11.9333V5.7327C14.0397 5.29443 14.776 5.03674 15.5404 4.98763C16.3048 4.93852 17.068 5.09987 17.7472 5.45415C18.4263 5.80843 18.9953 6.34207 19.3923 6.99709C19.7894 7.65211 19.9993 8.40343 19.9993 9.1694Z"
    fill="#60D7D9"
  />
</svg>
