<svg
  width="52"
  height="53"
  viewBox="0 0 52 53"
  fill="none"
  xmlns="http://www.w3.org/2000/svg"
>
  <rect y="0.173096" width="52" height="52" rx="7.8" fill="#2D2AE1" />
  <path
    d="M17.266 34.0627C21.4893 34.0627 24.9129 30.639 24.9129 26.4158C24.9129 22.1925 21.4893 18.7689 17.266 18.7689C13.0428 18.7689 9.61914 22.1925 9.61914 26.4158C9.61914 30.639 13.0428 34.0627 17.266 34.0627Z"
    fill="#387EC2"
  />
  <path
    d="M36.581 34.0627C40.8042 34.0627 44.2278 30.639 44.2278 26.4158C44.2278 22.1925 40.8042 18.7689 36.581 18.7689C32.3577 18.7689 28.9341 22.1925 28.9341 26.4158C28.9341 30.639 32.3577 34.0627 36.581 34.0627Z"
    fill="#387EC2"
  />
  <path
    d="M10.32 9.9231C8.88101 9.9231 7.71875 11.0853 7.71875 12.5243V15.1809V31.4616C7.71875 32.9006 8.88101 34.0629 10.32 34.0629C11.759 34.0629 12.9212 32.9006 12.9212 31.4616V15.1809V12.5243C12.9212 11.0853 11.759 9.9231 10.32 9.9231Z"
    fill="white"
  />
  <path
    d="M12.9214 20.1251V31.4709C12.9214 31.8491 12.8476 32.2089 12.6908 32.5317C10.8183 31.1573 9.61914 28.925 9.61914 26.4253C9.61914 23.8148 10.9198 21.4995 12.9214 20.1251Z"
    fill="#64E0E0"
  />
  <path
    d="M29.6359 9.9231C28.1969 9.9231 27.0347 11.0853 27.0347 12.5243V15.1809V31.4616C27.0347 32.9006 28.1969 34.0629 29.6359 34.0629C31.0749 34.0629 32.2371 32.9006 32.2371 31.4616V15.1809V12.5243C32.2371 11.0853 31.0749 9.9231 29.6359 9.9231Z"
    fill="white"
  />
  <path
    d="M32.2364 20.1251V31.4709C32.2364 31.8491 32.1626 32.2089 32.0058 32.5317C30.1332 31.1573 28.9341 28.925 28.9341 26.4253C28.9433 23.8148 30.2439 21.4995 32.2364 20.1251Z"
    fill="#64E0E0"
  />
  <path
    d="M7.71875 36.9066C7.71875 36.7944 7.80969 36.7035 7.92188 36.7035H8.90704C8.98948 36.7035 9.06375 36.7533 9.095 36.8296L10.8039 41.0008C10.812 41.0204 10.8311 41.0332 10.8522 41.0332C10.8734 41.0332 10.8925 41.0204 10.9005 41.0008L12.6095 36.8296C12.6407 36.7533 12.715 36.7035 12.7974 36.7035H13.7826C13.8948 36.7035 13.9857 36.7944 13.9857 36.9066V42.4756C13.9857 42.5878 13.8948 42.6787 13.7826 42.6787H13.1502C13.038 42.6787 12.9471 42.5878 12.9471 42.4756V38.6068C12.9471 38.5885 12.9322 38.5737 12.914 38.5737C12.9005 38.5737 12.8883 38.5819 12.8833 38.5944L11.2916 42.5342C11.2606 42.6109 11.1861 42.6612 11.1033 42.6612H10.6013C10.5185 42.6612 10.4439 42.6109 10.4129 42.534L8.8212 38.5856C8.81615 38.5731 8.804 38.5649 8.7905 38.5649C8.77223 38.5649 8.75741 38.5797 8.75741 38.598V42.4756C8.75741 42.5878 8.66647 42.6787 8.55428 42.6787H7.92188C7.80969 42.6787 7.71875 42.5878 7.71875 42.4756V36.9066Z"
    fill="white"
  />
  <path
    d="M17.0195 42.7662C16.5702 42.7662 16.1822 42.6729 15.8554 42.4861C15.5306 42.2975 15.2807 42.031 15.1056 41.6867C14.9305 41.3405 14.843 40.933 14.843 40.4643C14.843 40.0033 14.9305 39.5987 15.1056 39.2505C15.2826 38.9004 15.5296 38.6281 15.8467 38.4336C16.1637 38.2372 16.5362 38.1389 16.9641 38.1389C17.2403 38.1389 17.5009 38.1837 17.746 38.2732C17.993 38.3607 18.2109 38.4968 18.3996 38.6816C18.5902 38.8664 18.7399 39.1017 18.8489 39.3877C18.9578 39.6716 19.0122 40.0101 19.0122 40.403V40.5237C19.0122 40.6359 18.9213 40.7268 18.8091 40.7268H15.5421C15.43 40.7268 15.339 40.6359 15.339 40.5237V40.2181C15.339 40.1059 15.43 40.0149 15.5421 40.0149H17.7948C17.9077 40.0149 18.0011 39.9222 17.9824 39.8108C17.9621 39.6895 17.9242 39.5776 17.8686 39.4752C17.783 39.3157 17.6633 39.1902 17.5097 39.0988C17.358 39.0074 17.181 38.9617 16.9787 38.9617C16.7628 38.9617 16.5731 39.0142 16.4098 39.1193C16.2464 39.2223 16.119 39.3585 16.0276 39.5277C15.9381 39.695 15.8924 39.8788 15.8904 40.0791V40.7006C15.8904 40.9612 15.9381 41.1849 16.0334 41.3716C16.1287 41.5564 16.2619 41.6984 16.4331 41.7976C16.6043 41.8948 16.8046 41.9435 17.0341 41.9435C17.1878 41.9435 17.3269 41.9221 17.4513 41.8793C17.5758 41.8345 17.6838 41.7694 17.7752 41.6838C17.8295 41.6329 17.876 41.5748 17.9145 41.5095C17.962 41.429 18.0476 41.3731 18.1405 41.3836L18.7403 41.451C18.8615 41.4646 18.9446 41.5821 18.8999 41.6956C18.8325 41.8668 18.7367 42.0214 18.6125 42.1594C18.4394 42.3519 18.2177 42.5017 17.9473 42.6087C17.677 42.7137 17.3677 42.7662 17.0195 42.7662Z"
    fill="white"
  />
  <path
    d="M20.0267 42.6787C19.9145 42.6787 19.8236 42.5878 19.8236 42.4756V38.4004C19.8236 38.2882 19.9145 38.1973 20.0267 38.1973H20.6445C20.7567 38.1973 20.8477 38.2882 20.8477 38.4004V38.9173C20.8477 38.9321 20.8597 38.9442 20.8746 38.9442C20.8864 38.9442 20.8967 38.9365 20.9004 38.9254C20.9829 38.6758 21.1209 38.4827 21.3145 38.3461C21.5148 38.2041 21.7434 38.1331 22.0001 38.1331C22.0585 38.1331 22.1236 38.136 22.1956 38.1419C22.2019 38.1422 22.208 38.1425 22.2141 38.1429C22.3108 38.1488 22.3794 38.232 22.3794 38.3288V38.9166C22.3794 39.0229 22.2719 39.1057 22.1664 39.093C22.0711 39.0794 21.9787 39.0726 21.8892 39.0726C21.6967 39.0726 21.5236 39.1144 21.3699 39.198C21.2182 39.2797 21.0986 39.3935 21.0111 39.5394C20.9235 39.6853 20.8798 39.8535 20.8798 40.0441V42.4756C20.8798 42.5878 20.7888 42.6787 20.6766 42.6787H20.0267Z"
    fill="white"
  />
  <path
    d="M24.7692 42.7662C24.3218 42.7662 23.9377 42.668 23.6167 42.4716C23.2977 42.2751 23.0517 42.0038 22.8786 41.6575C22.7074 41.3094 22.6218 40.9087 22.6218 40.4555C22.6218 40.0004 22.7093 39.5987 22.8844 39.2505C23.0595 38.9004 23.3065 38.6281 23.6255 38.4336C23.9464 38.2372 24.3257 38.1389 24.7633 38.1389C25.1271 38.1389 25.449 38.206 25.729 38.3403C26.0111 38.4725 26.2357 38.6602 26.403 38.9033C26.5318 39.089 26.6179 39.2989 26.6614 39.5329C26.6829 39.6489 26.5885 39.7494 26.4706 39.7494H25.8477C25.7501 39.7494 25.6686 39.679 25.6357 39.5871C25.5837 39.4417 25.5011 39.3159 25.3877 39.2097C25.236 39.0638 25.0327 38.9909 24.7779 38.9909C24.562 38.9909 24.3724 39.0492 24.209 39.1659C24.0456 39.2807 23.9182 39.446 23.8268 39.6619C23.7373 39.8778 23.6926 40.1365 23.6926 40.438C23.6926 40.7434 23.7373 41.006 23.8268 41.2257C23.9163 41.4436 24.0417 41.6118 24.2031 41.7305C24.3665 41.8472 24.5581 41.9055 24.7779 41.9055C24.9335 41.9055 25.0726 41.8764 25.1951 41.818C25.3196 41.7577 25.4237 41.6712 25.5073 41.5583C25.5614 41.4854 25.6045 41.4023 25.6366 41.309C25.6683 41.2169 25.7498 41.147 25.8472 41.147H26.469C26.5875 41.147 26.682 41.2485 26.6598 41.3649C26.6159 41.5944 26.5323 41.8028 26.4088 41.9902C26.2474 42.2333 26.0276 42.4239 25.7495 42.562C25.4713 42.6982 25.1446 42.7662 24.7692 42.7662Z"
    fill="white"
  />
  <path
    d="M28.5302 40.0529V42.4756C28.5302 42.5878 28.4392 42.6787 28.3271 42.6787H27.6771C27.565 42.6787 27.474 42.5878 27.474 42.4756V36.9066C27.474 36.7944 27.565 36.7035 27.6771 36.7035H28.3037C28.4159 36.7035 28.5068 36.7944 28.5068 36.9066V38.9273C28.5068 38.9447 28.5209 38.9588 28.5383 38.9588C28.5511 38.9588 28.5625 38.9511 28.5676 38.9394C28.6728 38.6957 28.8325 38.5028 29.0466 38.3607C29.2683 38.2129 29.5504 38.1389 29.8927 38.1389C30.2039 38.1389 30.4752 38.2041 30.7067 38.3344C30.9382 38.4647 31.1171 38.6554 31.2435 38.9063C31.3719 39.1572 31.4361 39.4635 31.4361 39.8253V42.4756C31.4361 42.5878 31.3452 42.6787 31.233 42.6787H30.5831C30.4709 42.6787 30.3799 42.5878 30.3799 42.4756V39.9887C30.3799 39.6872 30.3021 39.4528 30.1465 39.2856C29.9929 39.1163 29.777 39.0317 29.4988 39.0317C29.3121 39.0317 29.1448 39.0726 28.997 39.1543C28.8511 39.234 28.7364 39.3497 28.6527 39.5015C28.571 39.6532 28.5302 39.837 28.5302 40.0529Z"
    fill="white"
  />
  <path
    d="M33.7201 42.7691C33.4361 42.7691 33.1803 42.7186 32.9528 42.6174C32.7272 42.5143 32.5482 42.3626 32.4159 42.1623C32.2856 41.9619 32.2205 41.7149 32.2205 41.4212C32.2205 41.1684 32.2671 40.9593 32.3605 40.7939C32.4539 40.6286 32.5813 40.4963 32.7427 40.3972C32.9042 40.298 33.086 40.2231 33.2883 40.1725C33.4925 40.12 33.7036 40.0821 33.9214 40.0587C34.184 40.0315 34.397 40.0072 34.5604 39.9858C34.7237 39.9624 34.8424 39.9274 34.9163 39.8807C34.9922 39.8321 35.0301 39.7572 35.0301 39.6561V39.6386C35.0301 39.4188 34.9649 39.2486 34.8346 39.128C34.7043 39.0074 34.5166 38.9471 34.2715 38.9471C34.0128 38.9471 33.8076 39.0035 33.6559 39.1163C33.5578 39.1902 33.4805 39.2729 33.4241 39.3644C33.373 39.4474 33.2826 39.5061 33.1861 39.4924L32.5971 39.4088C32.4751 39.3914 32.3955 39.2696 32.4442 39.1564C32.5205 38.979 32.6229 38.8246 32.7515 38.6933C32.9304 38.5085 33.1492 38.3704 33.4079 38.279C33.6666 38.1856 33.9525 38.1389 34.2657 38.1389C34.4816 38.1389 34.6965 38.1642 34.9105 38.2148C35.1244 38.2654 35.3199 38.349 35.4969 38.4657C35.6739 38.5805 35.8159 38.737 35.9229 38.9354C36.0318 39.1338 36.0863 39.3818 36.0863 39.6794V42.4756C36.0863 42.5878 35.9953 42.6787 35.8831 42.6787H35.2741C35.1619 42.6787 35.0709 42.5878 35.0709 42.4756V42.0848C35.0709 42.0728 35.0612 42.0631 35.0492 42.0631C35.041 42.0631 35.0336 42.0676 35.0298 42.0748C34.966 42.1949 34.8776 42.3077 34.7646 42.4132C34.6498 42.5202 34.5049 42.6067 34.3299 42.6729C34.1568 42.7371 33.9535 42.7691 33.7201 42.7691ZM33.9944 41.9931C34.2064 41.9931 34.3902 41.9513 34.5458 41.8676C34.7014 41.782 34.821 41.6692 34.9046 41.5292C34.9902 41.3891 35.033 41.2364 35.033 41.0711V40.7296C35.033 40.6552 34.9352 40.598 34.8638 40.6189C34.786 40.6422 34.6985 40.6627 34.6012 40.6802C34.504 40.6977 34.4077 40.7132 34.3124 40.7268C34.2171 40.7405 34.1344 40.7521 34.0644 40.7618C33.9068 40.7832 33.7658 40.8183 33.6413 40.8669C33.5168 40.9155 33.4186 40.9836 33.3466 41.0711C33.2747 41.1567 33.2387 41.2676 33.2387 41.4037C33.2387 41.5982 33.3097 41.7451 33.4517 41.8443C33.5937 41.9435 33.7746 41.9931 33.9944 41.9931Z"
    fill="white"
  />
  <path
    d="M38.1223 40.0529V42.4756C38.1223 42.5878 38.0313 42.6787 37.9191 42.6787H37.2692C37.157 42.6787 37.0661 42.5878 37.0661 42.4756V38.4004C37.0661 38.2882 37.157 38.1973 37.2692 38.1973H37.8725C37.9846 38.1973 38.0756 38.2882 38.0756 38.4004V38.9273C38.0756 38.9447 38.0897 38.9588 38.107 38.9588C38.1198 38.9588 38.1312 38.9511 38.1363 38.9393C38.2398 38.6976 38.4014 38.5047 38.6212 38.3607C38.8487 38.2129 39.1298 38.1389 39.4644 38.1389C39.7736 38.1389 40.043 38.2051 40.2725 38.3373C40.504 38.4696 40.6829 38.6612 40.8094 38.9121C40.9377 39.163 41.0009 39.4674 40.999 39.8253V42.4756C40.999 42.5878 40.9081 42.6787 40.7959 42.6787H40.146C40.0338 42.6787 39.9428 42.5878 39.9428 42.4756V39.9887C39.9428 39.6892 39.865 39.4548 39.7094 39.2856C39.5558 39.1163 39.3428 39.0317 39.0705 39.0317C38.8857 39.0317 38.7213 39.0726 38.5774 39.1543C38.4354 39.234 38.3236 39.3497 38.2419 39.5015C38.1621 39.6532 38.1223 39.837 38.1223 40.0529Z"
    fill="white"
  />
  <path
    d="M44.0252 38.1973C44.1374 38.1973 44.2283 38.2882 44.2283 38.4004V38.8111C44.2283 38.9233 44.1374 39.0142 44.0252 39.0142H41.8552C41.743 39.0142 41.6521 38.9233 41.6521 38.8111V38.4004C41.6521 38.2882 41.743 38.1973 41.8552 38.1973H44.0252ZM42.2881 37.3267C42.2881 37.2146 42.379 37.1236 42.4912 37.1236H43.1411C43.2533 37.1236 43.3443 37.2146 43.3443 37.3267V41.3308C43.3443 41.4728 43.3657 41.5817 43.4085 41.6575C43.4532 41.7315 43.5115 41.782 43.5835 41.8093C43.6555 41.8365 43.7352 41.8501 43.8228 41.8501C43.8889 41.8501 43.9492 41.8452 44.0036 41.8355C44.0739 41.8234 44.1446 41.8676 44.1596 41.9374L44.272 42.4588C44.2937 42.5593 44.2365 42.6594 44.1365 42.6833C44.1149 42.6885 44.092 42.6937 44.0678 42.6991C43.9647 42.7225 43.8383 42.7361 43.6885 42.74C43.424 42.7478 43.1857 42.7079 42.9737 42.6203C42.7617 42.5309 42.5935 42.3928 42.469 42.2061C42.3465 42.0193 42.2862 41.7859 42.2881 41.5058V37.3267Z"
    fill="white"
  />
</svg>
