<svg
  width="83"
  height="40"
  viewBox="0 0 83 40"
  fill="none"
  xmlns="http://www.w3.org/2000/svg"
>
  <path
    d="M0 15.5631V0H5.63568C7.36151 0 8.70551 0.320735 9.63715 0.946923C10.5535 1.57311 11.0117 2.44366 11.0117 3.57385C11.0117 4.38331 10.7368 5.11642 10.1717 5.72733C9.60662 6.33825 8.88879 6.78116 8.01824 7.02553L7.9266 7.05608V7.25462L8.03352 7.31571C9.11789 7.45317 10.0037 7.86554 10.6604 8.52227C11.3019 9.17901 11.6379 10.0037 11.6379 10.9659C11.6379 12.371 11.1339 13.5012 10.1259 14.3107C9.11789 15.1354 7.71277 15.5631 5.95639 15.5631H0ZM3.31418 13.1958H5.37602C6.2313 13.1958 6.90331 12.9972 7.39204 12.6001C7.88077 12.203 8.1404 11.6379 8.1404 10.9354C8.1404 10.2634 7.89606 9.72883 7.40733 9.34701C6.93387 8.96519 6.26187 8.78191 5.40659 8.78191H3.32947V13.1958H3.31418ZM3.31418 6.38407H5.00949C5.77313 6.38407 6.38404 6.20079 6.82696 5.81897C7.26987 5.43714 7.49896 4.91787 7.49896 4.24586C7.49896 3.00876 6.58258 2.38257 4.76511 2.38257H3.29894V6.38407H3.31418Z"
    fill="#0A1F44"
  />
  <path
    d="M19.0911 15.8377C17.3042 15.8377 15.9143 15.3337 14.9369 14.3562C13.9594 13.3788 13.4707 11.989 13.4707 10.2173C13.4707 8.38456 14.0052 6.91836 15.059 5.84926C16.1129 4.78016 17.4416 4.24561 18.9842 4.24561C20.5878 4.24561 21.8402 4.71906 22.7107 5.66598C23.5813 6.6129 24.0242 7.92636 24.0242 9.56056V10.9046H16.6474L16.6627 11.042C16.7849 12.7526 17.8692 13.6231 19.8853 13.6231C21.0613 13.6231 22.1151 13.3635 23.0315 12.829V15.1199C22.0845 15.5628 20.7253 15.8377 19.0911 15.8377ZM18.9536 6.35327C18.358 6.35327 17.8387 6.59763 17.4111 7.08636C16.9834 7.55982 16.7238 8.17073 16.6321 8.88856L16.6169 9.02602H21.046V8.90384C21.046 7.20855 20.3435 6.35327 18.9536 6.35327Z"
    fill="#0A1F44"
  />
  <path
    d="M28.9117 15.8377C27.8579 15.8377 27.0179 15.5323 26.407 14.9366C25.8114 14.341 25.5059 13.5315 25.5059 12.5388C25.5059 10.4006 26.743 9.19401 29.2936 8.87328L32.4703 8.44564V8.33874C32.4703 7.02527 31.7525 6.36853 30.3321 6.36853C29.0339 6.36853 27.7968 6.73508 26.6208 7.46818V5.07034C27.0179 4.93289 27.6899 4.71907 28.5146 4.53579C29.3394 4.35252 30.103 4.24561 30.7903 4.24561C33.9518 4.24561 35.4943 5.78817 35.4943 8.93438V15.5628H32.4551V13.9439H32.2565L32.1802 14.005C31.4318 15.2421 30.3627 15.8377 28.9117 15.8377ZM30.2863 10.4922C29.0797 10.6449 28.4841 11.21 28.4841 12.1417C28.4841 12.5693 28.6368 12.9359 28.9423 13.2108C29.2477 13.4857 29.6448 13.6231 30.1488 13.6231C30.8361 13.6231 31.4012 13.3788 31.8441 12.9053C32.2718 12.4319 32.5009 11.821 32.5009 11.1031V10.202L30.2863 10.4922Z"
    fill="#0A1F44"
  />
  <path
    d="M41.344 15.8377C38.7934 15.8377 37.541 14.3257 37.541 11.21V4.52051H40.7636V10.9046C40.7636 12.5693 41.4509 13.4246 42.7797 13.4246C43.4364 13.4246 43.9709 13.1955 44.368 12.722C44.7651 12.2639 44.9637 11.6377 44.9637 10.8588V4.52051H48.1862V15.5628H44.9637V13.837H44.7651L44.6735 13.8981C43.864 15.1963 42.7338 15.8377 41.344 15.8377Z"
    fill="#0A1F44"
  />
  <path
    d="M55.2727 15.8382C52.8748 15.8382 51.7141 14.6316 51.7141 12.1421V6.84244H49.8813V4.52095H51.7141V2.04674L54.9367 1.13037V4.52095H57.472V6.84244H54.9367V11.5312C54.9367 12.7836 55.4559 13.425 56.464 13.425C56.8 13.425 57.136 13.3487 57.472 13.1807V15.5633C57.0443 15.716 56.2807 15.8382 55.2727 15.8382Z"
    fill="#0A1F44"
  />
  <path
    d="M60.7402 20.8777C59.9155 20.8777 59.2282 20.7861 58.6937 20.6028L58.77 18.1439C59.1977 18.3577 59.6711 18.4646 60.1599 18.4646C61.1068 18.4646 61.7788 18.0065 62.1454 17.1206L62.741 15.7155L58.2202 4.52051H61.8094L63.8864 11.3017C64.0086 11.7293 64.1156 12.218 64.1919 12.7984L64.2072 12.9053H64.421L64.4821 12.7984C64.5432 12.3708 64.6654 11.882 64.8334 11.3322L66.941 4.53578H70.1178L65.597 16.5555C64.5279 19.4115 62.8937 20.8777 60.7402 20.8777Z"
    fill="#0A1F44"
  />
  <path
    d="M6.55206 34.9749C5.20805 34.9749 4.18477 34.4556 3.49749 33.4476L3.46692 33.3865H3.23783V34.7H0V18.2358H3.23783V25.353H3.43639L3.51273 25.2919C4.33747 24.0243 5.54402 23.3675 7.08657 23.3675C8.49168 23.3675 9.59134 23.8563 10.355 24.8185C11.1186 25.7959 11.5157 27.1399 11.5157 28.8505C11.5157 30.6985 11.0575 32.1953 10.1717 33.3102C9.25535 34.4098 8.0488 34.9749 6.55206 34.9749ZM5.72731 25.7959C4.99422 25.7959 4.38329 26.0708 3.89456 26.6206C3.4211 27.1705 3.17673 27.873 3.17673 28.7436V29.9043C3.17673 30.6527 3.40586 31.2942 3.8335 31.7982C4.27641 32.3022 4.8415 32.5618 5.54405 32.5618C6.38405 32.5618 7.04078 32.2411 7.49897 31.5843C7.94188 30.9429 8.17098 30.0418 8.17098 28.8963C8.17098 27.9341 7.95715 27.1705 7.54479 26.6359C7.11715 26.0708 6.50623 25.7959 5.72731 25.7959Z"
    fill="#0A1F44"
  />
  <path
    d="M18.7706 34.9753C16.9226 34.9753 15.4717 34.456 14.4178 33.4327C13.364 32.4094 12.8447 30.9891 12.8447 29.2327C12.8447 27.4152 13.3945 25.9643 14.4789 24.941C15.5633 23.9177 17.06 23.3984 18.9233 23.3984C20.7561 23.3984 22.207 23.9177 23.2456 24.941C24.2841 25.9643 24.8034 27.3388 24.8034 29.0341C24.8034 30.8669 24.2536 32.3331 23.1845 33.3869C22.1306 34.4407 20.6339 34.9753 18.7706 34.9753ZM18.8623 25.7963C18.007 25.7963 17.3197 26.1017 16.8462 26.6974C16.3728 27.293 16.1284 28.1178 16.1284 29.1869C16.1284 31.432 17.06 32.5622 18.8775 32.5622C20.6186 32.5622 21.5044 31.4014 21.5044 29.0952C21.5044 26.8959 20.6186 25.7963 18.8623 25.7963Z"
    fill="#0A1F44"
  />
  <path
    d="M32.088 34.9753C30.24 34.9753 28.789 34.456 27.7352 33.4327C26.6814 32.4094 26.1621 30.9891 26.1621 29.2327C26.1621 27.4152 26.7119 25.9643 27.7963 24.941C28.8806 23.9177 30.3774 23.3984 32.2407 23.3984C34.0734 23.3984 35.5244 23.9177 36.5629 24.941C37.6015 25.9643 38.1207 27.3388 38.1207 29.0341C38.1207 30.8669 37.5709 32.3331 36.5018 33.3869C35.4327 34.4407 33.9513 34.9753 32.088 34.9753ZM32.1643 25.7963C31.309 25.7963 30.6218 26.1017 30.1483 26.6974C29.6748 27.293 29.4305 28.1178 29.4305 29.1869C29.4305 31.432 30.3621 32.5622 32.1796 32.5622C33.9207 32.5622 34.8066 31.4014 34.8066 29.0952C34.8218 26.8959 33.936 25.7963 32.1643 25.7963Z"
    fill="#0A1F44"
  />
  <path
    d="M47.1933 34.7001L43.65 29.095H43.4209V34.7001H40.1831V18.2207H43.4209V28.8659H43.6042L43.6958 28.8048L47.0559 23.5968L50.8283 23.6579L46.8879 28.8354L51.1337 34.7001H47.1933Z"
    fill="#0A1F44"
  />
  <path
    d="M54.2032 21.6112C53.6534 21.6112 53.1953 21.4432 52.844 21.1225C52.4927 20.8018 52.3247 20.4047 52.3247 19.9312C52.3247 19.4425 52.4927 19.0607 52.844 18.7399C53.1953 18.4345 53.6534 18.2817 54.2032 18.2817C54.7683 18.2817 55.2265 18.4345 55.5625 18.7399C55.9138 19.0454 56.0818 19.4425 56.0818 19.9312C56.0818 20.4199 55.9138 20.8323 55.5625 21.1377C55.2113 21.4585 54.7683 21.6112 54.2032 21.6112Z"
    fill="#0A1F44"
  />
  <path d="M55.8223 23.6577H52.5845V34.7H55.8223V23.6577Z" fill="#0A1F44" />
  <path
    d="M65.7807 34.7002V28.5452C65.7807 26.7277 65.1087 25.7961 63.78 25.7961C63.1385 25.7961 62.6039 26.0404 62.1916 26.5292C61.7792 27.0179 61.5807 27.6288 61.5807 28.3772V34.6849H58.3428V23.6426H61.5807V25.4295H61.7792L61.8556 25.3684C62.665 24.0397 63.841 23.3677 65.3836 23.3677C67.8272 23.3677 69.0032 24.8491 69.0032 27.8884V34.6696H65.7807V34.7002Z"
    fill="#0A1F44"
  />
  <path
    d="M75.3255 39.9999C73.8287 39.9999 72.6374 39.786 71.7669 39.3584L71.828 36.7467C72.9429 37.3576 74.0884 37.6784 75.2186 37.6784C76.4251 37.6784 77.372 37.3576 78.0441 36.7162C78.7161 36.0747 79.0521 35.1889 79.0521 34.0893V33.0659H78.8535L78.7771 33.1271C78.0135 34.3489 76.868 34.9598 75.3713 34.9598C73.9815 34.9598 72.8512 34.4558 72.0418 33.4783C71.2171 32.4856 70.8047 31.1416 70.8047 29.4768C70.8047 27.5983 71.2629 26.1015 72.1945 25.0019C73.1109 23.9175 74.3327 23.3677 75.8142 23.3677C77.1429 23.3677 78.1357 23.887 78.7924 24.895L78.8229 24.956H79.0521V23.6426H82.2899V33.5241C82.2899 35.5707 81.6942 37.1744 80.503 38.3046C79.327 39.4348 77.5706 39.9999 75.3255 39.9999ZM76.6847 25.7961C75.8753 25.7961 75.2338 26.1168 74.7604 26.7583C74.3022 27.3844 74.0731 28.255 74.0731 29.3852C74.0731 30.3474 74.2869 31.1263 74.7298 31.6914C75.1727 32.2718 75.7837 32.562 76.5473 32.562C77.3109 32.562 77.9218 32.2718 78.3953 31.6761C78.8535 31.0958 79.0826 30.3321 79.0826 29.4005V28.5146C79.0826 27.7815 78.8535 27.1401 78.4259 26.6055C77.983 26.071 77.4026 25.7961 76.6847 25.7961Z"
    fill="#0A1F44"
  />
</svg>
