<svg
  width="81"
  height="40"
  viewBox="0 0 81 40"
  fill="none"
  xmlns="http://www.w3.org/2000/svg"
>
  <path
    d="M14.6894 15.073C15.7909 15.9543 17.2007 16.395 18.9187 16.395C19.5914 16.3925 20.2625 16.3301 20.9242 16.2086C21.5838 16.0919 22.2321 15.9187 22.8619 15.6907V13.4423C21.7421 13.9567 20.5258 14.2275 19.2935 14.237C18.2503 14.237 17.4243 13.9759 16.8154 13.4536C16.5184 13.2057 16.2816 12.8934 16.1231 12.5404C15.9646 12.1874 15.8884 11.803 15.9003 11.4162H23.6773V10.7326C23.6773 8.58972 23.1193 6.98912 22.0032 5.93083C21.0918 5.06462 19.8949 4.63089 18.4123 4.62964C16.7382 4.62964 15.3799 5.18828 14.3373 6.30557C13.2941 7.42033 12.7725 8.82258 12.7725 10.5123C12.7724 12.5253 13.4114 14.0455 14.6894 15.073ZM16.5385 7.49372C16.7395 7.23792 16.9977 7.03291 17.2924 6.89521C17.5871 6.75751 17.9101 6.69097 18.2352 6.70096C18.5484 6.69513 18.8593 6.75495 19.1479 6.87657C19.4366 6.99819 19.6965 7.17892 19.9111 7.40711C20.3649 7.87598 20.5921 8.5294 20.5927 9.36737H15.9003C15.8867 8.68729 16.1126 8.0241 16.5385 7.49372Z"
    fill="#0A1F44"
  />
  <path
    d="M29.2742 16.395C29.8738 16.4023 30.4702 16.3054 31.0367 16.1087C31.8289 15.8391 32.4901 15.2802 32.8877 14.5439V16.2198H35.8179V9.01526C35.8179 7.85529 35.5825 6.94452 35.1117 6.28293C34.319 5.18134 32.8728 4.63023 30.7731 4.6296C30.0536 4.62552 29.335 4.68095 28.6246 4.79532C27.927 4.91858 27.2441 5.11422 26.5871 5.37908V7.73661C27.1769 7.39003 27.8101 7.12344 28.4702 6.94384C29.05 6.79697 29.6459 6.72296 30.244 6.72351C30.8837 6.70183 31.5157 6.86884 32.0612 7.20374C32.5526 7.52384 32.7986 8.01155 32.7993 8.66687L32.8219 9.14711H30.8823C28.7958 9.14711 27.2831 9.54381 26.3441 10.3372C25.5946 10.968 25.2199 11.8273 25.2199 12.9151C25.1969 13.7788 25.5133 14.617 26.1012 15.2501C26.8205 16.0127 27.8782 16.3943 29.2742 16.395ZM29.7506 11.2184C30.2477 11.0866 31.0957 11.0201 32.2946 11.0188H32.7992V11.3088C32.7992 12.3727 32.5218 13.1705 31.9669 13.7022C31.4981 14.1466 30.8691 14.3688 30.0801 14.3688C29.4229 14.3688 28.9408 14.2131 28.6339 13.9018C28.5062 13.7659 28.4074 13.6056 28.3433 13.4306C28.2793 13.2555 28.2513 13.0692 28.2611 12.8831C28.261 12.0395 28.7575 11.4846 29.7506 11.2184Z"
    fill="#0A1F44"
  />
  <path
    d="M44.4099 16.0655C45.2267 15.735 45.9253 15.1669 46.4154 14.4347V16.2199H49.3002V4.80667H46.3043V10.8569C46.3307 11.6651 46.06 12.4549 45.5435 13.0771C45.3117 13.363 45.0177 13.5923 44.6839 13.7473C44.35 13.9023 43.9851 13.979 43.6171 13.9715C42.7792 13.9715 42.2136 13.6696 41.9205 13.0658C41.7388 12.6411 41.6558 12.1808 41.6776 11.7194V4.80664H38.6816V12.1864C38.6816 13.5535 39.0269 14.5967 39.7173 15.316C40.4065 16.0353 41.4127 16.395 42.7359 16.395C43.31 16.3949 43.8786 16.283 44.4099 16.0655Z"
    fill="#0A1F44"
  />
  <path
    d="M58.8397 13.994C58.4681 14.1388 58.0708 14.2061 57.6723 14.1917C57.0263 14.1917 56.6008 14.0009 56.3955 13.6193C56.2618 13.3688 56.1959 12.8924 56.1959 12.1863V7.00974H58.8397V4.80656H56.1964C57.0306 3.97239 57.5521 3.17585 57.81 1.58472H54.8198C54.3908 4.01653 53.162 4.80585 51.0848 4.80656H50.9536V7.00974H53.2001V12.8698C53.2001 13.7662 53.3689 14.493 53.7066 15.0504C54.2508 15.9467 55.1911 16.3949 56.5274 16.3949C56.9288 16.3932 57.3296 16.3636 57.7269 16.3064C58.1469 16.248 58.5179 16.1821 58.8398 16.1087L58.8397 13.994Z"
    fill="#0A1F44"
  />
  <path
    d="M63.7528 17.5191C63.6125 17.9253 63.3417 18.2736 62.9826 18.5096C62.5827 18.719 62.1342 18.8178 61.6833 18.7959C61.2816 18.7925 60.8843 18.7107 60.5139 18.5548L60.2936 20.7806C60.5742 20.8792 60.8619 20.956 61.1542 21.0103C61.4449 21.0635 61.7399 21.0894 62.0354 21.0876C63.5174 21.0876 64.641 20.7059 65.4062 19.9427C65.8468 19.502 66.2799 18.7237 66.7055 17.6077L71.5298 4.80664H68.4906L66.4117 11.017L65.698 13.2823L65.5889 13.288L64.9505 11.1074L62.8208 4.80664H59.5234L64.0184 16.8582L63.7528 17.5191Z"
    fill="#0A1F44"
  />
  <path
    d="M8.08811 26.7239C8.73161 26.5393 9.315 26.1882 9.77937 25.706C10.4112 25.0247 10.7274 24.1209 10.728 22.9947C10.728 21.3728 10.0025 20.2294 8.55151 19.5646C7.69991 19.1784 6.62586 18.9856 5.32938 18.9863H0V35.2061H5.12141C7.53156 35.2061 9.27697 34.6575 10.3577 33.5604C11.1142 32.788 11.4925 31.8149 11.4925 30.6412C11.4925 29.5737 11.1723 28.6971 10.532 28.0112C9.88462 27.3203 9.02397 26.867 8.08811 26.7239ZM3.29151 21.5351H4.75899C5.81461 21.5351 6.56784 21.79 7.01866 22.2996C7.30774 22.6502 7.45723 23.0952 7.43845 23.5493C7.44613 24.0063 7.28861 24.4507 6.99483 24.8009C6.57496 25.3118 5.87588 25.5666 4.89757 25.5653H3.29146L3.29151 21.5351ZM7.26422 32.0414C6.76318 32.4513 6.04892 32.6566 5.12143 32.6573H3.29151V28.1142H5.12143C5.69977 28.0987 6.2752 28.2011 6.81268 28.4152C7.61477 28.7717 8.01613 29.4285 8.01679 30.3857C8.0296 30.7013 7.96819 31.0155 7.83748 31.3031C7.70677 31.5906 7.51043 31.8435 7.26422 32.0414Z"
    fill="#0A1F44"
  />
  <path
    d="M8.08811 7.73757C8.73161 7.55298 9.315 7.20185 9.77937 6.71963C10.4112 6.03837 10.7274 5.13463 10.728 4.00842C10.728 2.38645 10.0025 1.24308 8.55151 0.578302C7.69991 0.192097 6.62586 -0.000669912 5.32938 1.74912e-06H0V16.2198H5.12141C7.53156 16.2198 9.27697 15.6712 10.3577 14.574C11.1142 13.8016 11.4925 12.8286 11.4925 11.6549C11.4925 10.5874 11.1723 9.71075 10.532 9.02486C9.88462 8.33403 9.02397 7.88069 8.08811 7.73757ZM3.29151 2.54884H4.75899C5.81461 2.54884 6.56784 2.80365 7.01866 3.31329C7.30774 3.6639 7.45723 4.10889 7.43845 4.56293C7.44613 5.01995 7.28861 5.4644 6.99483 5.81457C6.57496 6.32552 5.87588 6.58034 4.89757 6.57902H3.29146L3.29151 2.54884ZM7.26422 13.0551C6.76318 13.465 6.04892 13.6703 5.12143 13.671H3.29151V9.12784H5.12143C5.69977 9.11238 6.2752 9.2148 6.81268 9.42888C7.61477 9.78534 8.01613 10.4422 8.01679 11.3994C8.02962 11.715 7.96821 12.0292 7.8375 12.3168C7.70679 12.6043 7.51044 12.8572 7.26422 13.0551Z"
    fill="#0A1F44"
  />
  <path
    d="M18.5408 23.8447C16.7281 23.8447 15.3105 24.3702 14.2879 25.4211C13.2652 26.4733 12.7539 27.87 12.7539 29.6113C12.7539 31.3538 13.2652 32.7505 14.2879 33.8014C15.3086 34.8536 16.7263 35.379 18.5408 35.3778C20.3405 35.3778 21.752 34.8523 22.7752 33.8014C23.796 32.7511 24.3067 31.3544 24.3073 29.6113C24.3073 27.8705 23.7966 26.4738 22.7752 25.4211C21.7526 24.3708 20.3411 23.8453 18.5408 23.8447ZM20.4642 32.3007C20.2358 32.5989 19.9421 32.8407 19.6056 33.0074C19.2691 33.1742 18.8988 33.2615 18.5232 33.2625C18.1476 33.2636 17.7768 33.1784 17.4394 33.0136C17.1019 32.8488 16.8068 32.6087 16.5768 32.3118C16.0728 31.6787 15.8205 30.7785 15.8199 29.6113C15.8199 28.4594 16.0759 27.5636 16.5878 26.9237C16.8139 26.6202 17.1089 26.3747 17.4484 26.2075C17.7879 26.0403 18.1623 25.9561 18.5408 25.962C18.9172 25.9581 19.2892 26.0442 19.6256 26.213C19.9621 26.3819 20.2534 26.6287 20.4753 26.9329C20.9847 27.5808 21.2401 28.4736 21.2413 29.6113C21.2413 30.7631 20.9822 31.6596 20.4642 32.3007Z"
    fill="#0A1F44"
  />
  <path
    d="M31.6071 23.8447C29.7925 23.8447 28.3743 24.3702 27.3523 25.4211C26.3297 26.4733 25.8183 27.87 25.8184 29.6113C25.8184 31.3538 26.3297 32.7505 27.3523 33.8014C28.3749 34.8536 29.7932 35.379 31.6071 35.3778C33.4068 35.3778 34.8177 34.8523 35.8397 33.8014C36.8623 32.7511 37.3736 31.3544 37.3736 29.6113C37.3736 27.8705 36.8623 26.4738 35.8397 25.4211C34.8171 24.3708 33.4062 23.8453 31.6071 23.8447ZM33.5286 32.3007C33.3003 32.5989 33.0066 32.8407 32.67 33.0075C32.3335 33.1742 31.9632 33.2615 31.5876 33.2626C31.2121 33.2636 30.8413 33.1785 30.5038 33.0136C30.1664 32.8488 29.8712 32.6087 29.6412 32.3118C29.1373 31.6787 28.8856 30.7785 28.8862 29.6113C28.8862 28.4594 29.1416 27.5636 29.6523 26.9237C29.8789 26.6202 30.1742 26.3749 30.514 26.2077C30.8538 26.0405 31.2284 25.9563 31.6071 25.962C31.9832 25.9583 32.3549 26.0445 32.691 26.2133C33.0272 26.3822 33.3182 26.6289 33.5398 26.9329C34.0511 27.5808 34.3064 28.4736 34.3058 29.6113C34.3058 30.7631 34.0467 31.6596 33.5286 32.3007Z"
    fill="#0A1F44"
  />
  <path
    d="M49.4461 24.0182H46.0774L42.5775 28.6606H42.4705V18.9863H39.5337V35.2061H42.4705V29.5245H42.5775L46.249 35.2061H49.8356L45.3427 29.0926L49.4461 24.0182Z"
    fill="#0A1F44"
  />
  <path d="M54.3914 19.3315H51.4546V22.3551H54.3914V19.3315Z" fill="#0A1F44" />
  <path d="M54.3914 24.0183H51.4546V35.2062H54.3914V24.0183Z" fill="#0A1F44" />
  <path
    d="M66.4856 24.6883C65.7657 24.1253 64.844 23.8441 63.7204 23.8447C63.0079 23.8466 62.3067 24.0229 61.678 24.3582C61.0492 24.6935 60.5122 25.1775 60.1136 25.7681V24.0182H57.2856V35.2061H60.2225V29.1793C60.2117 28.4314 60.4683 27.7041 60.9461 27.1286C61.1733 26.842 61.4644 26.6127 61.7962 26.4588C62.1279 26.305 62.491 26.2309 62.8565 26.2425C63.1318 26.2288 63.4063 26.2803 63.6578 26.3929C63.9093 26.5055 64.1307 26.676 64.3037 26.8904C64.6064 27.28 64.7578 27.7968 64.7578 28.4447V35.2061H67.6946V27.3648C67.6946 26.2148 67.2916 25.3226 66.4856 24.6883Z"
    fill="#0A1F44"
  />
  <path
    d="M78.1475 24.0183L78.083 25.8974C77.7708 25.2536 77.2487 24.7354 76.6026 24.4281C75.9291 24.119 75.1949 23.9644 74.454 23.9759C73.8441 23.9621 73.2388 24.0846 72.6822 24.3343C72.1257 24.584 71.6318 24.9547 71.2366 25.4194C70.3155 26.4549 69.8546 27.8701 69.854 29.6649C69.854 31.2468 70.2355 32.5476 70.9984 33.5671C71.8328 34.6876 72.9994 35.2481 74.4982 35.2487C75.0647 35.26 75.6282 35.1648 76.1595 34.9681C76.9716 34.6471 77.6238 34.0181 77.974 33.2182V34.6875C77.974 35.6806 77.6824 36.4294 77.0991 36.9339C76.5177 37.4379 75.7276 37.6889 74.7345 37.6889C74.1574 37.6842 73.5836 37.601 73.0289 37.4416C72.4254 37.2704 71.8394 37.0423 71.279 36.7604L71.0427 39.2228C71.7183 39.4942 72.4197 39.6964 73.136 39.8265C73.8213 39.9443 74.5155 40.0024 75.2108 40C77.5145 40 79.1272 39.2875 80.0489 37.8624C80.623 36.969 80.9103 35.7883 80.9109 34.3202V24.0183H78.1475ZM77.2948 31.9796C77.0993 32.272 76.8337 32.5108 76.5222 32.6743C76.2108 32.8378 75.8634 32.9207 75.5117 32.9154C75.1887 32.926 74.8671 32.8703 74.5665 32.7519C74.2658 32.6335 73.9926 32.4549 73.7636 32.227C73.2024 31.6677 72.9212 30.7921 72.92 29.6003C72.92 28.6404 73.1329 27.8584 73.5587 27.2542C73.7477 26.9686 74.0064 26.7358 74.3103 26.5779C74.6142 26.42 74.9533 26.3421 75.2957 26.3516C76.1595 26.3516 76.8222 26.6346 77.2837 27.2007C77.7433 27.7673 77.9734 28.4958 77.974 29.3862C77.974 30.4918 77.7476 31.3563 77.2948 31.9796Z"
    fill="#0A1F44"
  />
</svg>
