<svg
  width="33"
  height="32"
  viewBox="0 0 33 32"
  fill="none"
  xmlns="http://www.w3.org/2000/svg"
>
  <path
    d="M0.333496 16C0.333496 24.8366 7.49694 32 16.3335 32C25.1701 32 32.3335 24.8366 32.3335 16C32.3335 7.16344 25.1701 0 16.3335 0C7.49694 0 0.333496 7.16344 0.333496 16Z"
    fill="#1877F2"
  />
  <path
    d="M24.3335 16C24.3335 11.6 20.7335 8 16.3335 8C11.9335 8 8.3335 11.6 8.3335 16C8.3335 20 11.2335 23.3 15.0335 23.9V18.3H13.0335V16H15.0335V14.2C15.0335 12.2 16.2335 11.1 18.0335 11.1C18.9335 11.1 19.8335 11.3 19.8335 11.3V13.3H18.8335C17.8335 13.3 17.5335 13.9 17.5335 14.5V16H19.7335L19.3335 18.3H17.4335V24C21.4335 23.4 24.3335 20 24.3335 16Z"
    fill="white"
  />
</svg>
