<svg
  width="34"
  height="36"
  viewBox="0 0 34 36"
  fill="none"
  xmlns="http://www.w3.org/2000/svg"
>
  <path
    d="M0.665725 0.555715C0.244039 0.986103 0 1.65618 0 2.52396V33.477C0 34.3448 0.244039 35.0149 0.665725 35.4453L0.769802 35.5397L18.5596 18.2017V17.7923L0.769802 0.454242L0.665725 0.555715Z"
    fill="url(#paint0_linear_12813_1359)"
  />
  <path
    d="M24.4829 23.9839L18.5596 18.2017V17.7923L24.4901 12.01L24.6229 12.0853L31.6462 15.9815C33.6506 17.0872 33.6506 18.9068 31.6462 20.0195L24.6229 23.9087L24.4829 23.9839Z"
    fill="url(#paint1_linear_12813_1359)"
  />
  <path
    d="M24.6227 23.9088L18.5594 17.997L0.665527 35.4453C1.33125 36.1276 2.41687 36.2098 3.65143 35.5275L24.6227 23.9088Z"
    fill="url(#paint2_linear_12813_1359)"
  />
  <path
    d="M24.6227 12.0853L3.65143 0.466577C2.41687 -0.20875 1.33125 -0.126524 0.665527 0.555801L18.5594 17.9971L24.6227 12.0853Z"
    fill="url(#paint3_linear_12813_1359)"
  />
  <defs>
    <linearGradient
      id="paint0_linear_12813_1359"
      x1="16.9801"
      y1="33.7994"
      x2="-6.50173"
      y2="9.71546"
      gradientUnits="userSpaceOnUse"
    >
      <stop stop-color="#00A0FF" />
      <stop offset="0.0066" stop-color="#00A1FF" />
      <stop offset="0.2601" stop-color="#00BEFF" />
      <stop offset="0.5122" stop-color="#00D2FF" />
      <stop offset="0.7604" stop-color="#00DFFF" />
      <stop offset="1" stop-color="#00E3FF" />
    </linearGradient>
    <linearGradient
      id="paint1_linear_12813_1359"
      x1="34.2562"
      y1="17.995"
      x2="-0.479125"
      y2="17.995"
      gradientUnits="userSpaceOnUse"
    >
      <stop stop-color="#FFE000" />
      <stop offset="0.4087" stop-color="#FFBD00" />
      <stop offset="0.7754" stop-color="#FFA500" />
      <stop offset="1" stop-color="#FF9C00" />
    </linearGradient>
    <linearGradient
      id="paint2_linear_12813_1359"
      x1="21.3257"
      y1="14.7833"
      x2="-10.5176"
      y2="-17.8764"
      gradientUnits="userSpaceOnUse"
    >
      <stop stop-color="#FF3A44" />
      <stop offset="1" stop-color="#C31162" />
    </linearGradient>
    <linearGradient
      id="paint3_linear_12813_1359"
      x1="-3.83873"
      y1="45.7433"
      x2="10.3807"
      y2="31.1594"
      gradientUnits="userSpaceOnUse"
    >
      <stop stop-color="#32A071" />
      <stop offset="0.0685" stop-color="#2DA771" />
      <stop offset="0.4762" stop-color="#15CF74" />
      <stop offset="0.8009" stop-color="#06E775" />
      <stop offset="1" stop-color="#00F076" />
    </linearGradient>
  </defs>
</svg>
