<svg
  width="36"
  height="37"
  viewBox="0 0 36 37"
  fill="none"
  xmlns="http://www.w3.org/2000/svg"
>
  <path
    d="M15.3227 16.4609V17.9615M21.3252 16.4609V17.9615M23.5762 23.4958C23.5762 23.4958 21.6073 25.4646 18.324 25.4646C15.0406 25.4646 13.0718 23.4958 13.0718 23.4958M27.3277 31.4671C29.8143 31.4671 31.8296 29.4518 31.8296 26.9653V15.9612C31.8296 14.5716 31.1888 13.26 30.0919 12.4077L21.0881 5.40428C19.463 4.13925 17.1865 4.13925 15.5598 5.40428L6.55608 12.4077C5.45913 13.26 4.81836 14.5716 4.81836 15.9612V26.9653C4.81836 29.4518 6.8337 31.4671 9.32023 31.4671H27.3277Z"
    stroke="#5552FF"
    stroke-width="2.5"
    stroke-linecap="round"
    stroke-linejoin="round"
  />
</svg>
