<svg
  width="16"
  height="16"
  viewBox="0 0 16 16"
  fill="none"
  xmlns="http://www.w3.org/2000/svg"
>
  <path
    d="M14.3731 7.16L13.4731 6.10667C13.3064 5.90667 13.1664 5.53333 13.1664 5.26667V4.13333C13.1664 3.42667 12.5864 2.84667 11.8798 2.84667H10.7464C10.4798 2.84667 10.0998 2.70667 9.89976 2.54L8.84643 1.64C8.38643 1.24667 7.63309 1.24667 7.17309 1.64L6.10643 2.54C5.90643 2.70667 5.53309 2.84667 5.26643 2.84667H4.11309C3.40643 2.84667 2.82643 3.42667 2.82643 4.13333V5.26667C2.82643 5.52667 2.69309 5.9 2.52643 6.1L1.62643 7.16C1.23976 7.62667 1.23976 8.37333 1.62643 8.82667L2.52643 9.88667C2.69309 10.08 2.82643 10.46 2.82643 10.72V11.86C2.82643 12.5667 3.40643 13.1467 4.11309 13.1467H5.27309C5.53309 13.1467 5.91309 13.2867 6.11309 13.4533L7.16643 14.3533C7.62643 14.7467 8.37976 14.7467 8.83976 14.3533L9.89309 13.4533C10.0931 13.2867 10.4664 13.1467 10.7331 13.1467H11.8664C12.5731 13.1467 13.1531 12.5667 13.1531 11.86V10.7267C13.1531 10.46 13.2931 10.0867 13.4598 9.88667L14.3598 8.83333C14.7664 8.38 14.7664 7.62667 14.3731 7.16ZM7.49976 5.42C7.49976 5.14667 7.72643 4.92 7.99976 4.92C8.27309 4.92 8.49976 5.14667 8.49976 5.42V8.64C8.49976 8.91333 8.27309 9.14 7.99976 9.14C7.72643 9.14 7.49976 8.91333 7.49976 8.64V5.42ZM7.99976 11.2467C7.63309 11.2467 7.33309 10.9467 7.33309 10.58C7.33309 10.2133 7.62643 9.91333 7.99976 9.91333C8.36643 9.91333 8.66643 10.2133 8.66643 10.58C8.66643 10.9467 8.37309 11.2467 7.99976 11.2467Z"
    fill="#5552FF"
  />
</svg>
