<svg
  width="33"
  height="32"
  viewBox="0 0 33 32"
  fill="none"
  xmlns="http://www.w3.org/2000/svg"
>
  <path
    d="M0.333496 16C0.333496 24.8366 7.49694 32 16.3335 32C25.1701 32 32.3335 24.8366 32.3335 16C32.3335 7.16344 25.1701 0 16.3335 0C7.49694 0 0.333496 7.16344 0.333496 16Z"
    fill="#F00073"
  />
  <path
    d="M16.3337 9.19995C18.5337 9.19995 18.8337 9.19995 19.7337 9.19995C20.5337 9.19995 20.9337 9.39995 21.2337 9.49995C21.6337 9.69995 21.9337 9.79995 22.2337 10.1C22.5337 10.4 22.7337 10.7 22.8337 11.1C22.9337 11.4 23.0337 11.8 23.1337 12.6C23.1337 13.5 23.1337 13.7 23.1337 16C23.1337 18.3 23.1337 18.5 23.1337 19.4C23.1337 20.2 22.9337 20.6 22.8337 20.9C22.6337 21.3 22.5337 21.6 22.2337 21.9C21.9337 22.2 21.6337 22.4 21.2337 22.5C20.9337 22.6 20.5337 22.7 19.7337 22.8C18.8337 22.8 18.6337 22.8 16.3337 22.8C14.0337 22.8 13.8337 22.8 12.9337 22.8C12.1337 22.8 11.7337 22.6 11.4337 22.5C11.0337 22.3 10.7337 22.2 10.4337 21.9C10.1337 21.6 9.93369 21.3 9.83369 20.9C9.73369 20.6 9.63369 20.2 9.53369 19.4C9.53369 18.5 9.53369 18.3 9.53369 16C9.53369 13.7 9.53369 13.5 9.53369 12.6C9.53369 11.8 9.73369 11.4 9.83369 11.1C10.0337 10.7 10.1337 10.4 10.4337 10.1C10.7337 9.79995 11.0337 9.59995 11.4337 9.49995C11.7337 9.39995 12.1337 9.29995 12.9337 9.19995C13.8337 9.19995 14.1337 9.19995 16.3337 9.19995ZM16.3337 7.69995C14.0337 7.69995 13.8337 7.69995 12.9337 7.69995C12.0337 7.69995 11.4337 7.89995 10.9337 8.09995C10.4337 8.29995 9.93369 8.59995 9.43369 9.09995C8.93369 9.59995 8.73369 9.99995 8.43369 10.6C8.23369 11.1 8.13369 11.7 8.03369 12.6C8.03369 13.5 8.03369 13.8 8.03369 16C8.03369 18.3 8.03369 18.5 8.03369 19.4C8.03369 20.3 8.23369 20.9 8.43369 21.4C8.63369 21.9 8.93369 22.4 9.43369 22.9C9.93369 23.4 10.3337 23.6 10.9337 23.9C11.4337 24.1 12.0337 24.1999 12.9337 24.2999C13.8337 24.2999 14.1337 24.2999 16.3337 24.2999C18.5337 24.2999 18.8337 24.2999 19.7337 24.2999C20.6337 24.2999 21.2337 24.1 21.7337 23.9C22.2337 23.7 22.7337 23.4 23.2337 22.9C23.7337 22.4 23.9337 22 24.2337 21.4C24.4337 20.9 24.5337 20.3 24.6337 19.4C24.6337 18.5 24.6337 18.2 24.6337 16C24.6337 13.8 24.6337 13.5 24.6337 12.6C24.6337 11.7 24.4337 11.1 24.2337 10.6C24.0337 10.1 23.7337 9.59995 23.2337 9.09995C22.7337 8.59995 22.3337 8.39995 21.7337 8.09995C21.2337 7.89995 20.6337 7.79995 19.7337 7.69995C18.8337 7.69995 18.6337 7.69995 16.3337 7.69995Z"
    fill="white"
  />
  <path
    d="M16.3337 11.7C13.9337 11.7 12.0337 13.6 12.0337 16C12.0337 18.4 13.9337 20.3 16.3337 20.3C18.7337 20.3 20.6337 18.4 20.6337 16C20.6337 13.6 18.7337 11.7 16.3337 11.7ZM16.3337 18.8C14.8337 18.8 13.5337 17.6 13.5337 16C13.5337 14.5 14.7337 13.2 16.3337 13.2C17.8337 13.2 19.1337 14.4 19.1337 16C19.1337 17.5 17.8337 18.8 16.3337 18.8Z"
    fill="white"
  />
  <path
    d="M20.7337 12.6C21.286 12.6 21.7337 12.1522 21.7337 11.6C21.7337 11.0477 21.286 10.6 20.7337 10.6C20.1814 10.6 19.7337 11.0477 19.7337 11.6C19.7337 12.1522 20.1814 12.6 20.7337 12.6Z"
    fill="white"
  />
</svg>
