<svg
  width="21"
  height="21"
  viewBox="0 0 21 21"
  fill="none"
  xmlns="http://www.w3.org/2000/svg"
>
  <g clip-path="url(#clip0_12139_1700)">
    <path
      d="M10.5 0.5C4.8675 0.5 0.5 4.6275 0.5 10.2C0.5 13.115 1.695 15.635 3.64 17.375C3.8025 17.52 3.9025 17.725 3.9075 17.945L3.9625 19.725C3.9665 19.856 4.00262 19.984 4.06767 20.0977C4.13271 20.2114 4.22471 20.3075 4.33556 20.3773C4.44641 20.4472 4.57272 20.4888 4.7034 20.4984C4.83407 20.508 4.96511 20.4854 5.085 20.4325L7.07 19.5575C7.2375 19.4825 7.4275 19.47 7.605 19.5175C8.5175 19.7675 9.4875 19.9025 10.5 19.9025C16.1325 19.9025 20.5 15.775 20.5 10.2025C20.5 4.63 16.1325 0.5 10.5 0.5Z"
      fill="url(#paint0_radial_12139_1700)"
    />
    <path
      d="M4.49495 13.0375L7.43245 8.3775C7.54295 8.20205 7.68863 8.05142 7.86029 7.93511C8.03194 7.81881 8.22585 7.73935 8.42976 7.70177C8.63367 7.66418 8.84316 7.66928 9.045 7.71673C9.24684 7.76419 9.43665 7.85298 9.60245 7.9775L11.9399 9.73C12.0443 9.80812 12.1713 9.85014 12.3016 9.84969C12.432 9.84924 12.5586 9.80634 12.6624 9.7275L15.8174 7.3325C16.2374 7.0125 16.7874 7.5175 16.5074 7.965L13.5674 12.6225C13.4569 12.7979 13.3113 12.9486 13.1396 13.0649C12.968 13.1812 12.7741 13.2606 12.5701 13.2982C12.3662 13.3358 12.1567 13.3307 11.9549 13.2833C11.7531 13.2358 11.5632 13.147 11.3974 13.0225L9.05995 11.27C8.9556 11.1919 8.82864 11.1499 8.69828 11.1503C8.56792 11.1508 8.44126 11.1936 8.33745 11.2725L5.18245 13.6675C4.76245 13.9875 4.21245 13.485 4.49495 13.0375Z"
      fill="white"
    />
  </g>
  <defs>
    <radialGradient
      id="paint0_radial_12139_1700"
      cx="0"
      cy="0"
      r="1"
      gradientUnits="userSpaceOnUse"
      gradientTransform="translate(3.85 20.5) scale(22 22)"
    >
      <stop stop-color="#0099FF" />
      <stop offset="0.6" stop-color="#A033FF" />
      <stop offset="0.9" stop-color="#FF5280" />
      <stop offset="1" stop-color="#FF7061" />
    </radialGradient>
    <clipPath id="clip0_12139_1700">
      <rect
        width="20"
        height="20"
        fill="white"
        transform="translate(0.5 0.5)"
      />
    </clipPath>
  </defs>
</svg>
