<svg
  xmlns="http://www.w3.org/2000/svg"
  width="34"
  height="24"
  viewBox="0 0 34 24"
  fill="none"
>
  <path
    d="M5.12987 19.3401C4.0594 21.481 5.61623 24 8.00987 24C9.22949 24 10.3444 23.3109 10.8899 22.2201L13.57 16.8598C14.3788 15.2422 14.7999 13.4584 14.7999 11.6498V7.2C14.7999 3.22355 11.5764 0 7.5999 0C3.62345 0 0.399902 3.22355 0.399902 7.2V11.6498C0.399902 13.1687 1.63119 14.4 3.15006 14.4C5.19447 14.4 6.52416 16.5515 5.60987 18.3801L5.12987 19.3401ZM24.3299 19.3401C23.2594 21.481 24.8162 24 27.2099 24C28.4295 24 29.5444 23.3109 30.0899 22.2201L32.77 16.8598C33.5788 15.2422 33.9999 13.4584 33.9999 11.6498V7.2C33.9999 3.22355 30.7763 0 26.7999 0C22.8235 0 19.5999 3.22355 19.5999 7.2V11.6498C19.5999 13.1687 20.8312 14.4 22.3501 14.4C24.3945 14.4 25.7242 16.5515 24.8099 18.3801L24.3299 19.3401Z"
    fill="#D9D9FF"
  />
</svg>
