<svg
  width="24"
  height="24"
  viewBox="0 0 24 24"
  fill="none"
  xmlns="http://www.w3.org/2000/svg"
>
  <path
    fill-rule="evenodd"
    clip-rule="evenodd"
    d="M7.73161 20.8325C7.22453 21.0972 6.61109 21.0506 6.14982 20.7124C5.68855 20.3741 5.45969 19.8031 5.5597 19.2399L6.36904 14.6009L2.96162 11.3356C2.54512 10.9384 2.39248 10.338 2.56871 9.7901C2.74495 9.24222 3.21901 8.84339 3.78896 8.76351L8.51993 8.08723L10.6558 3.82645C10.9091 3.31546 11.4301 2.99219 12.0004 2.99219C12.5707 2.99219 13.0917 3.31546 13.3449 3.82645L15.4808 8.08723L20.2118 8.76351C20.7818 8.84339 21.2558 9.24222 21.4321 9.7901C21.6083 10.338 21.4556 10.9384 21.0391 11.3356L17.6317 14.6009L18.4411 19.2409C18.5411 19.8041 18.3122 20.3751 17.8509 20.7134C17.3897 21.0516 16.7762 21.0982 16.2692 20.8335L12.0004 18.6276L7.73161 20.8325Z"
    fill="#FFBB38"
  />
</svg>
