<svg
  width="36"
  height="37"
  viewBox="0 0 36 37"
  fill="none"
  xmlns="http://www.w3.org/2000/svg"
>
  <path
    d="M31.5055 27.1768H21.708M31.5055 22.675H21.708M28.2402 31.6787H21.708M16.2517 25.7858L11.0655 28.4869C10.5258 28.7718 9.8713 28.7261 9.3764 28.369C8.8815 28.012 8.63182 27.4052 8.73206 26.8032L9.89655 20.1074L4.9835 15.3624C4.54456 14.9384 4.38635 14.3009 4.57609 13.7208C4.76583 13.1407 5.27018 12.72 5.87487 12.6373L12.6532 11.6604L15.6815 5.55884C15.9552 5.01248 16.514 4.66748 17.1251 4.66748C17.7362 4.66748 18.2949 5.01248 18.5687 5.55884L21.6014 11.6604L28.3797 12.6358C28.9838 12.7189 29.4874 13.1394 29.6771 13.7189C29.8667 14.2984 29.7091 14.9353 29.2711 15.3594L26.5025 18.0365"
    stroke="#5552FF"
    stroke-width="2.5"
    stroke-linecap="round"
    stroke-linejoin="round"
  />
</svg>
