<svg
  width="33"
  height="32"
  viewBox="0 0 33 32"
  fill="none"
  xmlns="http://www.w3.org/2000/svg"
>
  <path
    d="M0.333496 16C0.333496 24.8366 7.49694 32 16.3335 32C25.1701 32 32.3335 24.8366 32.3335 16C32.3335 7.16344 25.1701 0 16.3335 0C7.49694 0 0.333496 7.16344 0.333496 16Z"
    fill="#0088CC"
  />
  <path
    d="M8.43341 15.7083C12.7284 13.8371 15.5923 12.6034 17.0253 12.0074C21.1168 10.3056 21.967 10.01 22.5212 10.0001C22.643 9.99805 22.9155 10.0283 23.0921 10.1715C23.2411 10.2924 23.2821 10.4558 23.3017 10.5705C23.3214 10.6851 23.3458 10.9464 23.3264 11.1505C23.1047 13.4801 22.1453 19.1335 21.6572 21.7427C21.4507 22.8468 21.044 23.217 20.6503 23.2532C19.7948 23.3319 19.1451 22.6878 18.3164 22.1446C17.0197 21.2946 16.2872 20.7654 15.0285 19.936C13.5739 18.9774 14.5169 18.4506 15.3459 17.5896C15.5628 17.3643 19.3325 13.9355 19.4054 13.6244C19.4146 13.5855 19.423 13.4405 19.3369 13.3639C19.2507 13.2874 19.1236 13.3136 19.0318 13.3344C18.9018 13.3639 16.8303 14.7331 12.8174 17.4419C12.2294 17.8457 11.6968 18.0424 11.2197 18.0321C10.6936 18.0207 9.68172 17.7346 8.92948 17.4901C8.00682 17.1902 7.27352 17.0316 7.33737 16.5223C7.37063 16.257 7.73598 15.9856 8.43341 15.7083Z"
    fill="white"
  />
</svg>
