<svg
  width="36"
  height="37"
  viewBox="0 0 36 37"
  fill="none"
  xmlns="http://www.w3.org/2000/svg"
>
  <path
    d="M21.7513 31.6787V30.1781C21.7513 27.2774 19.3998 24.9259 16.4991 24.9259H10.5792C8.14964 24.9295 6.04099 26.6021 5.48455 28.9671M24.0023 24.9349H26.2622C28.3231 24.9406 30.1865 26.1616 31.0147 28.0487M24.0023 20.433C25.6598 20.433 27.0035 19.0893 27.0035 17.4318C27.0035 15.7743 25.6598 14.4305 24.0023 14.4305C22.3447 14.4305 21.001 15.7743 21.001 17.4318C21.001 19.0893 22.3447 20.433 24.0023 20.433ZM11.6941 31.6787H24.3054C28.2818 31.6787 31.5054 28.4552 31.5054 24.4787V11.8675C31.5054 7.89103 28.2818 4.66748 24.3054 4.66748H11.6941C7.71769 4.66748 4.49414 7.89103 4.49414 11.8675V24.4787C4.49414 28.4552 7.71769 31.6787 11.6941 31.6787ZM13.4979 20.433C15.5698 20.433 17.2495 18.7534 17.2495 16.6815C17.2495 14.6096 15.5698 12.9299 13.4979 12.9299C11.426 12.9299 9.74633 14.6096 9.74633 16.6815C9.74633 18.7534 11.426 20.433 13.4979 20.433Z"
    stroke="#5552FF"
    stroke-width="2.5"
    stroke-linecap="round"
    stroke-linejoin="round"
  />
</svg>
