<svg
  width="33"
  height="32"
  viewBox="0 0 33 32"
  fill="none"
  xmlns="http://www.w3.org/2000/svg"
>
  <path
    d="M0.333496 16C0.333496 24.8366 7.49694 32 16.3335 32C25.1701 32 32.3335 24.8366 32.3335 16C32.3335 7.16344 25.1701 0 16.3335 0C7.49694 0 0.333496 7.16344 0.333496 16Z"
    fill="#25D366"
  />
  <path
    fill-rule="evenodd"
    clip-rule="evenodd"
    d="M21.9335 10.3C20.4335 8.8 18.4335 8 16.3335 8C11.9335 8 8.3335 11.6 8.3335 16C8.3335 17.4 8.7335 18.8 9.4335 20L8.3335 24L12.5335 22.9C13.7335 23.5 15.0335 23.9 16.3335 23.9C20.7335 23.9 24.3335 20.3 24.3335 15.9C24.3335 13.8 23.4335 11.8 21.9335 10.3ZM16.3335 22.6C15.1335 22.6 13.9335 22.3 12.9335 21.7L12.7335 21.6L10.2335 22.3L10.9335 19.9L10.7335 19.6C10.0335 18.5 9.73349 17.3 9.73349 16.1C9.73349 12.5 12.7335 9.5 16.3335 9.5C18.1335 9.5 19.7335 10.2 21.0335 11.4C22.3335 12.7 22.9335 14.3 22.9335 16.1C22.9335 19.6 20.0335 22.6 16.3335 22.6ZM19.9335 17.6C19.7335 17.5 18.7335 17 18.5335 17C18.3335 16.9 18.2335 16.9 18.1335 17.1C18.0335 17.3 17.6335 17.7 17.5335 17.9C17.4335 18 17.3335 18 17.1335 18C16.9335 17.9 16.3335 17.7 15.5335 17C14.9335 16.5 14.5335 15.8 14.4335 15.6C14.3335 15.4 14.4335 15.3 14.5335 15.2C14.6335 15.1 14.7335 15 14.8335 14.9C14.9335 14.8 14.9335 14.7 15.0335 14.6C15.1335 14.5 15.0335 14.4 15.0335 14.3C15.0335 14.2 14.6335 13.2 14.4335 12.8C14.3335 12.5 14.1335 12.5 14.0335 12.5C13.9335 12.5 13.8335 12.5 13.6335 12.5C13.5335 12.5 13.3335 12.5 13.1335 12.7C12.9335 12.9 12.4335 13.4 12.4335 14.4C12.4335 15.4 13.1335 16.3 13.2335 16.5C13.3335 16.6 14.6335 18.7 16.6335 19.5C18.3335 20.2 18.6335 20 19.0335 20C19.4335 20 20.2335 19.5 20.3335 19.1C20.5335 18.6 20.5335 18.2 20.4335 18.2C20.3335 17.7 20.1335 17.7 19.9335 17.6Z"
    fill="white"
  />
</svg>
