<svg
  width="20"
  height="20"
  viewBox="0 0 20 20"
  fill="none"
  xmlns="http://www.w3.org/2000/svg"
>
  <path
    d="M9.23052 1.72217H10.7073C12.7362 1.72217 13.922 2.02041 14.9746 2.58491C16.0152 3.13429 16.8659 3.98492 17.4152 5.02557C17.9797 6.0782 18.278 7.26396 18.278 9.29286V10.7634C18.278 12.7923 17.9797 13.9781 17.4152 15.0307C16.8659 16.0714 16.0152 16.922 14.9746 17.4714C13.922 18.0359 12.7362 18.3341 10.7073 18.3341H9.23671C7.20781 18.3341 6.02205 18.0359 4.96942 17.4714C3.92878 16.922 3.07814 16.0714 2.52876 15.0307C1.96426 13.9781 1.66602 12.7923 1.66602 10.7634V9.29183C1.66602 7.26293 1.96426 6.07717 2.52876 5.02454C3.07814 3.9839 3.92878 3.13326 4.96942 2.58388C6.01586 2.02041 7.20781 1.72217 9.23052 1.72217Z"
    fill="#0068FF"
  />
  <path
    opacity="0.12"
    d="M18.2782 10.5161V10.7586C18.2782 12.7875 17.9799 13.9733 17.4164 15.0259C16.8671 16.0666 16.0164 16.9172 14.9758 17.4666C13.9231 18.0311 12.7374 18.3293 10.7085 18.3293H9.23687C7.5764 18.3293 6.48145 18.1302 5.56092 17.7483L4.04492 16.1921L18.2782 10.5161Z"
    fill="#001A33"
  />
  <path
    d="M4.2127 16.2446C4.98979 16.3302 5.96089 16.1094 6.65026 15.774C9.64304 17.4252 14.3262 17.3499 17.1601 15.5366C17.2701 15.3715 17.3733 15.1995 17.4697 15.0206C18.0362 13.9639 18.3355 12.774 18.3355 10.7379V9.26213C18.3355 7.22601 18.0362 6.03612 17.4697 4.97936C16.9182 3.93474 16.0643 3.08085 15.0197 2.52941C13.963 1.96285 12.7731 1.66357 10.737 1.66357H9.25295C7.5192 1.66357 6.3933 1.88236 5.44696 2.29825C5.39536 2.34434 5.34479 2.39147 5.29526 2.43963C2.52023 5.11455 2.30971 10.9133 4.66265 14.064L4.6709 14.0784C5.03313 14.613 4.68329 15.548 4.13633 16.096C4.04758 16.1806 4.07957 16.2322 4.2127 16.2446Z"
    fill="white"
  />
  <path
    d="M8.48842 7.35205H5.23662V8.04968H7.49358L5.26861 10.8072C5.18082 10.9262 5.13804 11.0724 5.14787 11.22V11.3975H8.21598C8.28963 11.3967 8.36003 11.367 8.41211 11.315C8.46419 11.2629 8.49381 11.1925 8.49461 11.1188V10.7452H6.12103L8.21288 8.12089L8.32743 7.98157L8.33982 7.96299C8.44437 7.81197 8.49557 7.63039 8.48533 7.447L8.48842 7.35205Z"
    fill="#0068FF"
  />
  <path
    d="M12.6286 11.3975H13.0961V7.35205H12.3984V11.1622C12.3982 11.2238 12.4222 11.283 12.4652 11.327C12.5083 11.3711 12.567 11.3964 12.6286 11.3975Z"
    fill="#0068FF"
  />
  <path
    d="M10.2453 8.25293C9.93178 8.25293 9.62532 8.3459 9.36464 8.52007C9.10397 8.69425 8.90079 8.94181 8.78082 9.23146C8.66084 9.52111 8.62945 9.83983 8.69062 10.1473C8.75178 10.4548 8.90275 10.7372 9.12443 10.9589C9.34612 11.1806 9.62856 11.3316 9.93605 11.3928C10.2435 11.4539 10.5623 11.4225 10.8519 11.3025C11.1416 11.1826 11.3891 10.9794 11.5633 10.7187C11.7375 10.4581 11.8304 10.1516 11.8304 9.83807C11.8304 9.41766 11.6634 9.01448 11.3662 8.71721C11.0689 8.41994 10.6657 8.25293 10.2453 8.25293ZM10.2453 10.77C10.0616 10.77 9.88203 10.7155 9.72929 10.6134C9.57655 10.5114 9.4575 10.3663 9.3872 10.1966C9.31691 10.0269 9.29851 9.84013 9.33435 9.65997C9.37019 9.4798 9.45865 9.3143 9.58854 9.18441C9.71843 9.05451 9.88393 8.96606 10.0641 8.93022C10.2443 8.89438 10.431 8.91277 10.6007 8.98307C10.7704 9.05337 10.9155 9.17242 11.0176 9.32515C11.1196 9.47789 11.1741 9.65747 11.1741 9.84116C11.1741 10.0875 11.0762 10.3237 10.902 10.4979C10.7279 10.6721 10.4916 10.77 10.2453 10.77Z"
    fill="#0068FF"
  />
  <path
    d="M15.1522 8.22705C14.8363 8.22705 14.5274 8.32074 14.2647 8.49628C14.002 8.67182 13.7972 8.92132 13.6763 9.21323C13.5554 9.50514 13.5237 9.82635 13.5854 10.1362C13.647 10.4461 13.7992 10.7308 14.0226 10.9542C14.246 11.1776 14.5307 11.3298 14.8406 11.3914C15.1504 11.453 15.4716 11.4214 15.7636 11.3005C16.0555 11.1796 16.305 10.9748 16.4805 10.7121C16.656 10.4494 16.7497 10.1405 16.7497 9.82457C16.7492 9.40105 16.5807 8.99503 16.2812 8.69556C15.9818 8.39608 15.5757 8.2276 15.1522 8.22705ZM15.1522 10.7699C14.9667 10.7699 14.7853 10.7149 14.631 10.6118C14.4768 10.5087 14.3565 10.3622 14.2855 10.1908C14.2145 10.0194 14.196 9.83076 14.2322 9.64879C14.2684 9.46682 14.3577 9.29967 14.4889 9.16848C14.6201 9.03728 14.7872 8.94794 14.9692 8.91174C15.1512 8.87554 15.3398 8.89412 15.5112 8.96512C15.6826 9.03612 15.8291 9.15636 15.9322 9.31063C16.0353 9.46489 16.0903 9.64626 16.0903 9.8318C16.0906 9.95506 16.0665 10.0772 16.0194 10.1911C15.9724 10.305 15.9033 10.4086 15.8161 10.4957C15.729 10.5829 15.6255 10.652 15.5115 10.699C15.3976 10.7461 15.2755 10.7702 15.1522 10.7699Z"
    fill="#0068FF"
  />
  <path
    d="M11.4633 11.3975H11.8368V8.3418H11.1836V11.1282C11.1865 11.2005 11.2172 11.2688 11.2693 11.319C11.3215 11.3692 11.3909 11.3973 11.4633 11.3975Z"
    fill="#0068FF"
  />
</svg>
