<svg
  width="16"
  height="16"
  viewBox="0 0 16 16"
  fill="none"
  xmlns="http://www.w3.org/2000/svg"
>
  <rect width="16" height="16" rx="4" fill="white" />
  <path
    d="M5.55423 11.4749C6.86201 11.4749 7.92218 10.4147 7.92218 9.10696C7.92218 7.79918 6.86201 6.73901 5.55423 6.73901C4.24644 6.73901 3.18628 7.79918 3.18628 9.10696C3.18628 10.4147 4.24644 11.4749 5.55423 11.4749Z"
    fill="#60D7D9"
  />
  <path
    d="M11.5364 11.4749C12.8442 11.4749 13.9044 10.4147 13.9044 9.10696C13.9044 7.79918 12.8442 6.73901 11.5364 6.73901C10.2286 6.73901 9.16846 7.79918 9.16846 9.10696C9.16846 10.4147 10.2286 11.4749 11.5364 11.4749Z"
    fill="#60D7D9"
  />
  <path
    d="M3.40516 4C2.96062 4 2.6001 4.36053 2.6001 4.80507V5.62764V10.6681C2.6001 11.1126 2.96062 11.4731 3.40516 11.4731C3.8497 11.4731 4.21023 11.1126 4.21023 10.6681V5.62764V4.80507C4.21023 4.36053 3.8497 4 3.40516 4Z"
    fill="#14309D"
  />
  <path
    d="M4.21031 7.15723V10.6698C4.21031 10.787 4.18756 10.8973 4.14031 10.9988C3.56101 10.5718 3.18823 9.8822 3.18823 9.10689C3.18823 8.30182 3.59251 7.58426 4.21031 7.15723Z"
    fill="#387EC2"
  />
  <path
    d="M9.3871 4C8.94256 4 8.58203 4.36053 8.58203 4.80507V5.62764V10.6681C8.58203 11.1126 8.94256 11.4731 9.3871 11.4731C9.83164 11.4731 10.1922 11.1126 10.1922 10.6681V5.62764V4.80507C10.1922 4.36053 9.83164 4 9.3871 4Z"
    fill="#14309D"
  />
  <path
    d="M10.1922 7.15723V10.6698C10.1922 10.787 10.1695 10.8973 10.1222 10.9988C9.54295 10.5718 9.17017 9.8822 9.17017 9.10689C9.17017 8.30182 9.57445 7.58426 10.1922 7.15723Z"
    fill="#387EC2"
  />
</svg>
