<svg
  width="16"
  height="16"
  viewBox="0 0 16 16"
  fill="none"
  xmlns="http://www.w3.org/2000/svg"
>
  <rect width="16" height="16" fill="white" />
  <path
    d="M5.501 11.7405C6.80878 11.7405 7.86895 10.6804 7.86895 9.37259C7.86895 8.06481 6.80878 7.00464 5.501 7.00464C4.19322 7.00464 3.13306 8.06481 3.13306 9.37259C3.13306 10.6804 4.19322 11.7405 5.501 11.7405Z"
    fill="#60D7D9"
  />
  <path
    d="M11.4832 11.7405C12.791 11.7405 13.8511 10.6804 13.8511 9.37259C13.8511 8.06481 12.791 7.00464 11.4832 7.00464C10.1754 7.00464 9.11523 8.06481 9.11523 9.37259C9.11523 10.6804 10.1754 11.7405 11.4832 11.7405Z"
    fill="#60D7D9"
  />
  <path
    d="M3.35194 4.26562C2.9074 4.26562 2.54688 4.62616 2.54688 5.07069V5.89326V10.9337C2.54688 11.3782 2.9074 11.7388 3.35194 11.7388C3.79647 11.7388 4.15701 11.3782 4.15701 10.9337V5.89326V5.07069C4.15701 4.62616 3.79647 4.26562 3.35194 4.26562Z"
    fill="#14309D"
  />
  <path
    d="M4.15709 7.42285V10.9354C4.15709 11.0527 4.13434 11.1629 4.08709 11.2644C3.50779 10.8374 3.13501 10.1478 3.13501 9.37251C3.13501 8.56745 3.53929 7.84989 4.15709 7.42285Z"
    fill="#387EC2"
  />
  <path
    d="M9.33388 4.26562C8.88934 4.26562 8.52881 4.62616 8.52881 5.07069V5.89326V10.9337C8.52881 11.3782 8.88934 11.7388 9.33388 11.7388C9.77841 11.7388 10.1389 11.3782 10.1389 10.9337V5.89326V5.07069C10.1389 4.62616 9.77841 4.26562 9.33388 4.26562Z"
    fill="#14309D"
  />
  <path
    d="M10.139 7.42285V10.9354C10.139 11.0527 10.1163 11.1629 10.069 11.2644C9.48972 10.8374 9.11694 10.1478 9.11694 9.37251C9.11694 8.56745 9.52123 7.84989 10.139 7.42285Z"
    fill="#387EC2"
  />
</svg>
