<svg
  width="96"
  height="28"
  viewBox="0 0 96 28"
  fill="none"
  xmlns="http://www.w3.org/2000/svg"
>
  <path
    d="M10.4013 26.3261C15.0081 26.3261 18.7426 22.5916 18.7426 17.9848C18.7426 13.3781 15.0081 9.64355 10.4013 9.64355C5.79457 9.64355 2.06006 13.3781 2.06006 17.9848C2.06006 22.5916 5.79457 26.3261 10.4013 26.3261Z"
    fill="#60D7D9"
  />
  <path
    d="M31.4765 26.3261C36.0833 26.3261 39.8178 22.5916 39.8178 17.9848C39.8178 13.3781 36.0833 9.64355 31.4765 9.64355C26.8698 9.64355 23.1353 13.3781 23.1353 17.9848C23.1353 22.5916 26.8698 26.3261 31.4765 26.3261Z"
    fill="#60D7D9"
  />
  <path
    d="M2.83288 0C1.27337 0 0 1.27337 0 2.83289V5.72302V23.4786C0 25.0381 1.27337 26.3115 2.83288 26.3115C4.3924 26.3115 5.66577 25.0381 5.66577 23.4786V5.72302V2.83289C5.68007 1.25907 4.40671 0 2.83288 0Z"
    fill="#14309D"
  />
  <path
    d="M5.68016 11.1169V23.4786C5.68016 23.8935 5.59432 24.2799 5.43693 24.6376C3.39096 23.1353 2.08897 20.703 2.08897 17.9845C2.07467 15.1374 3.49111 12.6192 5.68016 11.1169Z"
    fill="#387EC2"
  />
  <path
    d="M23.9076 0C22.3481 0 21.0747 1.27337 21.0747 2.83289V5.72302V23.4786C21.0747 25.0381 22.3481 26.3115 23.9076 26.3115C25.4671 26.3115 26.7405 25.0381 26.7405 23.4786V5.72302V2.83289C26.7405 1.25907 25.4671 0 23.9076 0Z"
    fill="#14309D"
  />
  <path
    d="M26.7407 11.1169V23.4786C26.7407 23.8935 26.6548 24.2799 26.4975 24.6376C24.4515 23.1353 23.1495 20.703 23.1495 17.9845C23.1352 15.1374 24.566 12.6192 26.7407 11.1169Z"
    fill="#387EC2"
  />
  <path
    d="M44.7959 13.02V3.47693H48.244C49.3028 3.47693 50.1326 3.67724 50.6906 4.06354C51.2486 4.44985 51.5347 4.97923 51.5347 5.6803C51.5347 6.18106 51.363 6.62459 51.0197 6.99659C50.6763 7.36858 50.2327 7.64042 49.7034 7.7978L49.6461 7.8121V7.94087L49.7177 7.96949C50.3901 8.05533 50.9195 8.29857 51.3201 8.71349C51.7207 9.1141 51.921 9.62916 51.921 10.2015C51.921 11.0599 51.6063 11.7467 50.991 12.2474C50.3758 12.7482 49.5174 13.0057 48.43 13.0057H44.7959V13.02ZM46.8276 11.5607H48.0866C48.6017 11.5607 49.0166 11.4319 49.3171 11.1887C49.6175 10.9455 49.7749 10.6021 49.7749 10.1729C49.7749 9.75794 49.6175 9.42886 49.3171 9.19994C49.0166 8.97101 48.616 8.85655 48.0866 8.85655H46.8133V11.5607H46.8276ZM46.8276 7.38287H47.8577C48.3299 7.38287 48.7018 7.26843 48.9737 7.03951C49.2455 6.81059 49.3886 6.48152 49.3886 6.08091C49.3886 5.32261 48.8306 4.9363 47.7146 4.9363H46.8133V7.38287H46.8276Z"
    fill="#354056"
  />
  <path
    d="M56.4999 13.1919C55.4125 13.1919 54.554 12.8914 53.9531 12.2905C53.3522 11.6896 53.0518 10.8311 53.0518 9.75805C53.0518 8.64207 53.3808 7.7407 54.0247 7.08256C54.6685 6.42441 55.484 6.09534 56.4283 6.09534C57.4155 6.09534 58.1738 6.3958 58.7175 6.9681C59.2469 7.5547 59.5187 8.35592 59.5187 9.35745V10.173H54.9976V10.2588C55.0691 11.3033 55.7416 11.8326 56.972 11.8326C57.6874 11.8326 58.3455 11.6753 58.9035 11.3462V12.7483C58.3312 13.0202 57.5014 13.1919 56.4999 13.1919ZM56.414 7.3687C56.0563 7.3687 55.7273 7.5261 55.4697 7.82655C55.2122 8.12701 55.0548 8.48468 54.9976 8.92822L54.9833 9.01406H57.7017V8.94254C57.7017 7.89809 57.2725 7.3687 56.414 7.3687Z"
    fill="#354056"
  />
  <path
    d="M62.5235 13.1915C61.8796 13.1915 61.3646 13.0055 60.9926 12.6478C60.6206 12.2901 60.4346 11.7894 60.4346 11.1742C60.4346 9.85786 61.1929 9.12817 62.7524 8.92787L64.6982 8.67034V8.5988C64.6982 7.79758 64.2547 7.38265 63.3962 7.38265C62.6093 7.38265 61.8367 7.61158 61.1213 8.05511V6.58144C61.3646 6.49559 61.7652 6.36683 62.2802 6.25237C62.781 6.13791 63.2532 6.08069 63.6681 6.08069C65.6139 6.08069 66.5582 7.02498 66.5582 8.95649V13.0198H64.6839V12.0326H64.5694L64.5265 12.0755C64.0687 12.8195 63.4105 13.1915 62.5235 13.1915ZM63.3533 9.90079C62.6236 10.0009 62.2516 10.3443 62.2516 10.9166C62.2516 11.1884 62.3518 11.4031 62.5235 11.5748C62.7095 11.7465 62.9527 11.8323 63.2675 11.8323C63.6824 11.8323 64.0401 11.6892 64.2976 11.3888C64.5551 11.1026 64.6982 10.7306 64.6982 10.2871V9.72908L63.3533 9.90079Z"
    fill="#354056"
  />
  <path
    d="M70.1348 13.1917C68.561 13.1917 67.8027 12.2617 67.8027 10.3588V6.25256H69.7772V10.1585C69.7772 11.1886 70.1921 11.7037 71.0219 11.7037C71.4225 11.7037 71.7516 11.5606 71.9948 11.2745C72.2381 10.9883 72.3525 10.602 72.3525 10.1299V6.25256H74.3269V13.02H72.3525V11.9613H72.2381L72.1808 11.9899C71.6801 12.7911 70.9933 13.1917 70.1348 13.1917Z"
    fill="#354056"
  />
  <path
    d="M78.6766 13.192C77.2029 13.192 76.5019 12.448 76.5019 10.9171V7.66926H75.3716V6.25281H76.5019V4.73622L78.4763 4.17822V6.25281H80.0358V7.66926H78.4763V10.5451C78.4763 11.3177 78.7911 11.704 79.4063 11.704C79.6066 11.704 79.8212 11.6611 80.0215 11.5609V13.0203C79.764 13.1061 79.2918 13.192 78.6766 13.192Z"
    fill="#354056"
  />
  <path
    d="M82.0246 16.2681C81.5238 16.2681 81.0946 16.2108 80.7798 16.0964L80.8227 14.5941C81.0946 14.7228 81.3664 14.7944 81.6812 14.7944C82.2678 14.7944 82.6684 14.5225 82.8973 13.9645L83.2693 13.1061L80.4937 6.23853H82.697L83.9704 10.402C84.0562 10.6595 84.1135 10.9743 84.1564 11.3177L84.1707 11.3892H84.2995L84.3424 11.3177C84.3853 11.0601 84.4568 10.7597 84.557 10.4163L85.8447 6.23853H87.7905L85.0148 13.6069C84.3567 15.381 83.3552 16.2681 82.0246 16.2681Z"
    fill="#354056"
  />
  <path
    d="M48.8169 24.9096C48.0014 24.9096 47.3719 24.5949 46.9427 23.9653L46.9141 23.9367H46.771V24.7379H44.7822V14.6511H46.771V19.0149H46.8854L46.9284 18.9863C47.4434 18.1994 48.1731 17.8131 49.1174 17.8131C49.9759 17.8131 50.6483 18.1135 51.1205 18.7002C51.5926 19.3011 51.8215 20.1309 51.8215 21.161C51.8215 22.2913 51.5497 23.207 50.9917 23.8938C50.4623 24.5662 49.7326 24.9096 48.8169 24.9096ZM48.3019 19.2868C47.8583 19.2868 47.472 19.4585 47.1859 19.7875C46.8997 20.1166 46.7424 20.5601 46.7424 21.0895V21.8049C46.7424 22.2627 46.8711 22.6633 47.143 22.9638C47.4148 23.2786 47.7582 23.4359 48.1874 23.4359C48.7025 23.4359 49.1031 23.2356 49.3892 22.835C49.6611 22.4487 49.8042 21.8907 49.8042 21.1897C49.8042 20.6031 49.6754 20.1309 49.4179 19.8018C49.1603 19.4585 48.7883 19.2868 48.3019 19.2868Z"
    fill="#354056"
  />
  <path
    d="M56.2996 24.9096C55.1693 24.9096 54.268 24.5949 53.6384 23.9653C53.0089 23.3358 52.6655 22.463 52.6655 21.39C52.6655 20.274 53.0089 19.3869 53.667 18.7574C54.3395 18.1279 55.2552 17.8131 56.3855 17.8131C57.5158 17.8131 58.4028 18.1279 59.0324 18.7574C59.6619 19.3869 59.991 20.2311 59.991 21.2755C59.991 22.3915 59.6619 23.2929 59.0037 23.951C58.3599 24.5806 57.4442 24.9096 56.2996 24.9096ZM56.3569 19.2868C55.8275 19.2868 55.4126 19.4728 55.1264 19.8305C54.8403 20.1882 54.6972 20.7032 54.6972 21.3471C54.6972 22.7206 55.2695 23.4216 56.3855 23.4216C57.4585 23.4216 58.0022 22.7063 58.0022 21.3041C57.9736 19.9735 57.4299 19.2868 56.3569 19.2868Z"
    fill="#354056"
  />
  <path
    d="M64.4696 24.9096C63.3393 24.9096 62.4379 24.5949 61.8084 23.9653C61.1645 23.3358 60.8354 22.463 60.8354 21.39C60.8354 20.274 61.1788 19.3869 61.837 18.7574C62.5094 18.1279 63.4251 17.8131 64.5554 17.8131C65.6857 17.8131 66.5728 18.1279 67.2023 18.7574C67.8318 19.3869 68.1609 20.2311 68.1609 21.2755C68.1609 22.3915 67.8318 23.2929 67.1737 23.951C66.5155 24.5806 65.6142 24.9096 64.4696 24.9096ZM64.5125 19.2868C63.9831 19.2868 63.5682 19.4728 63.282 19.8305C62.9959 20.1882 62.8528 20.7032 62.8528 21.3471C62.8528 22.7206 63.4251 23.4216 64.5411 23.4216C65.6142 23.4216 66.1578 22.7063 66.1578 21.3041C66.1435 19.9735 65.5999 19.2868 64.5125 19.2868Z"
    fill="#354056"
  />
  <path
    d="M73.7263 24.7522L71.5516 21.3184H71.4085V24.7522H69.4341V14.6511H71.4085V21.1753H71.523L71.5802 21.1467L73.6405 17.9419L75.9583 17.9705L73.5403 21.1467L76.13 24.7522H73.7263Z"
    fill="#354056"
  />
  <path
    d="M78.0186 16.7258C77.6752 16.7258 77.4034 16.6256 77.1888 16.4253C76.9742 16.225 76.874 15.9818 76.874 15.6956C76.874 15.3952 76.9742 15.152 77.1888 14.966C77.4034 14.78 77.6896 14.6798 78.0186 14.6798C78.362 14.6798 78.6481 14.78 78.8628 14.966C79.0774 15.152 79.1775 15.3952 79.1775 15.6956C79.1775 15.9961 79.0774 16.2393 78.8628 16.4396C78.6481 16.6399 78.3763 16.7258 78.0186 16.7258Z"
    fill="#354056"
  />
  <path d="M79.02 17.9849H77.0312V24.7523H79.02V17.9849Z" fill="#354056" />
  <path
    d="M85.1149 24.7524V20.9896C85.1149 19.8736 84.7 19.3013 83.8844 19.3013C83.4981 19.3013 83.1691 19.4587 82.9115 19.7592C82.6683 20.0596 82.5395 20.4316 82.5395 20.8894V24.7668H80.5508V17.9993H82.5395V19.101H82.654L82.7112 19.0581C83.1977 18.2426 83.9274 17.8276 84.8717 17.8276C86.3596 17.8276 87.0893 18.729 87.0893 20.6033V24.7668H85.1149V24.7524Z"
    fill="#354056"
  />
  <path
    d="M90.9666 28C90.0509 28 89.3212 27.8712 88.7775 27.6137L88.8205 26.0112C89.5072 26.3832 90.2083 26.5836 90.9093 26.5836C91.6533 26.5836 92.2256 26.3832 92.6406 25.9969C93.0555 25.5963 93.2558 25.0669 93.2558 24.3945V23.765H93.1413L93.0841 23.8079C92.6119 24.5519 91.9109 24.9382 90.9952 24.9382C90.1367 24.9382 89.45 24.6377 88.9492 24.0368C88.4485 23.4359 88.1909 22.6061 88.1909 21.5902C88.1909 20.4456 88.4771 19.5156 89.0351 18.8432C89.593 18.1707 90.337 17.8417 91.2527 17.8417C92.0682 17.8417 92.6835 18.1564 93.0841 18.786L93.1127 18.8146H93.2558V18.0134H95.2445V24.0654C95.2445 25.3245 94.8725 26.3117 94.1571 26.9985C93.4132 27.6423 92.3544 28 90.9666 28ZM91.8107 19.2867C91.31 19.2867 90.9236 19.487 90.6375 19.8733C90.3657 20.2596 90.2226 20.789 90.2226 21.4758C90.2226 22.0624 90.3513 22.5488 90.6232 22.8922C90.895 23.2499 91.267 23.4216 91.7392 23.4216C92.197 23.4216 92.5833 23.2356 92.8695 22.8779C93.1556 22.5202 93.2987 22.0624 93.2987 21.4758V20.9321C93.2987 20.4742 93.1556 20.0879 92.8981 19.7589C92.5976 19.4584 92.2399 19.2867 91.8107 19.2867Z"
    fill="#354056"
  />
</svg>
