<svg
  width="36"
  height="36"
  viewBox="0 0 36 36"
  fill="none"
  xmlns="http://www.w3.org/2000/svg"
>
  <path
    d="M19.4746 24.75C19.4746 24.0596 18.9149 23.5 18.2246 23.5C17.5342 23.5 16.9746 24.0596 16.9746 24.75H19.4746ZM16.9746 27.9C16.9746 28.5904 17.5342 29.15 18.2246 29.15C18.9149 29.15 19.4746 28.5904 19.4746 27.9H16.9746ZM10.7246 33H9.47457V34.25H10.7246V33ZM25.7246 33V34.25H26.9746V33H25.7246ZM9.22457 31.75C8.53422 31.75 7.97457 32.3096 7.97457 33C7.97457 33.6904 8.53422 34.25 9.22457 34.25V31.75ZM27.2246 34.25C27.9149 34.25 28.4746 33.6904 28.4746 33C28.4746 32.3096 27.9149 31.75 27.2246 31.75V34.25ZM8.20457 17.475L7.8236 18.6655C8.29013 18.8148 8.80086 18.6779 9.13009 18.3152C9.45933 17.9525 9.54639 17.4309 9.35281 16.981L8.20457 17.475ZM5.30957 15.675L4.38045 16.5112C4.39511 16.5275 4.41019 16.5434 4.42569 16.5589L5.30957 15.675ZM7.78457 6.525L8.93091 7.02341C9.09891 6.63701 9.06094 6.19198 8.82992 5.83962C8.5989 5.48726 8.20591 5.275 7.78457 5.275V6.525ZM7.33457 13.275H8.58457H7.33457ZM27.7946 17.475L26.6463 16.981C26.4528 17.4309 26.5398 17.9525 26.8691 18.3152C27.1983 18.6779 27.709 18.8148 28.1755 18.6655L27.7946 17.475ZM30.6896 15.675L31.5735 16.5589C31.589 16.5434 31.604 16.5275 31.6187 16.5112L30.6896 15.675ZM28.2146 6.525V5.275C27.7932 5.275 27.4002 5.48726 27.1692 5.83962C26.9382 6.19198 26.9002 6.63701 27.0682 7.02341L28.2146 6.525ZM28.6646 13.275H29.9146H28.6646ZM16.9746 24.75V27.9H19.4746V24.75H16.9746ZM10.7246 34.25H25.7246V31.75H10.7246V34.25ZM26.9746 33V31.5H24.4746V33H26.9746ZM26.9746 31.5C26.9746 29.1596 25.0649 27.25 22.7246 27.25V29.75C23.6842 29.75 24.4746 30.5404 24.4746 31.5H26.9746ZM22.7246 27.25H13.7246V29.75H22.7246V27.25ZM13.7246 27.25C11.3842 27.25 9.47457 29.1596 9.47457 31.5H11.9746C11.9746 30.5404 12.7649 29.75 13.7246 29.75V27.25ZM9.47457 31.5V33H11.9746V31.5H9.47457ZM9.22457 34.25H27.2246V31.75H9.22457V34.25ZM17.9996 22.75C12.8849 22.75 8.74957 18.6146 8.74957 13.5H6.24957C6.24957 19.9954 11.5042 25.25 17.9996 25.25V22.75ZM8.74957 13.5V9H6.24957V13.5H8.74957ZM8.74957 9C8.74957 6.37536 10.8749 4.25 13.4996 4.25V1.75C9.49422 1.75 6.24957 4.99464 6.24957 9H8.74957ZM13.4996 4.25H22.4996V1.75H13.4996V4.25ZM22.4996 4.25C25.1242 4.25 27.2496 6.37536 27.2496 9H29.7496C29.7496 4.99464 26.5049 1.75 22.4996 1.75V4.25ZM27.2496 9V13.5H29.7496V9H27.2496ZM27.2496 13.5C27.2496 18.6146 23.1142 22.75 17.9996 22.75V25.25C24.4949 25.25 29.7496 19.9954 29.7496 13.5H27.2496ZM8.58554 16.2845C7.67689 15.9937 6.85388 15.4515 6.19345 14.7911L4.42569 16.5589C5.32526 17.4585 6.48225 18.2363 7.8236 18.6655L8.58554 16.2845ZM6.23869 14.8388C5.03706 13.5036 4.30957 11.989 4.30957 10.275H1.80957C1.80957 12.761 2.88209 14.8464 4.38045 16.5112L6.23869 14.8388ZM4.30957 10.275C4.30957 8.86536 5.39993 7.775 6.80957 7.775V5.275C4.01921 5.275 1.80957 7.48464 1.80957 10.275H4.30957ZM6.80957 7.775H7.78457V5.275H6.80957V7.775ZM6.63823 6.02659C6.26412 6.88704 6.08457 7.8235 6.08457 8.775H8.58457C8.58457 8.1365 8.70502 7.54296 8.93091 7.02341L6.63823 6.02659ZM6.08457 8.775V13.275H8.58457V8.775H6.08457ZM6.08457 13.275C6.08457 14.9533 6.43761 16.5309 7.05633 17.969L9.35281 16.981C8.86153 15.8391 8.58457 14.5967 8.58457 13.275H6.08457ZM28.1755 18.6655C29.5169 18.2363 30.6739 17.4585 31.5735 16.5589L29.8057 14.7911C29.1453 15.4515 28.3223 15.9937 27.4136 16.2845L28.1755 18.6655ZM31.6187 16.5112C33.1171 14.8464 34.1896 12.761 34.1896 10.275H31.6896C31.6896 11.989 30.9621 13.5036 29.7605 14.8388L31.6187 16.5112ZM34.1896 10.275C34.1896 7.48464 31.9799 5.275 29.1896 5.275V7.775C30.5992 7.775 31.6896 8.86536 31.6896 10.275H34.1896ZM29.1896 5.275H28.2146V7.775H29.1896V5.275ZM27.0682 7.02341C27.2941 7.54296 27.4146 8.1365 27.4146 8.775H29.9146C29.9146 7.8235 29.735 6.88704 29.3609 6.02659L27.0682 7.02341ZM27.4146 8.775V13.275H29.9146V8.775H27.4146ZM27.4146 13.275C27.4146 14.5967 27.1376 15.8391 26.6463 16.981L28.9428 17.969C29.5615 16.5309 29.9146 14.9533 29.9146 13.275H27.4146Z"
    fill="#5552FF"
  />
</svg>
