<svg
  width="36"
  height="36"
  viewBox="0 0 36 36"
  fill="none"
  xmlns="http://www.w3.org/2000/svg"
>
  <path
    d="M25.4552 21.66C27.5102 22.005 29.7752 21.645 31.3652 20.58C33.4802 19.17 33.4802 16.86 31.3652 15.45C29.7602 14.385 27.4652 14.025 25.4102 14.385M10.5002 21.66C8.44515 22.005 6.18016 21.645 4.59016 20.58C2.47516 19.17 2.47516 16.86 4.59016 15.45C6.19516 14.385 8.49015 14.025 10.5452 14.385M27.0002 10.74C26.9102 10.725 26.8052 10.725 26.7152 10.74C24.6452 10.665 22.9952 8.97 22.9952 6.87C22.9952 4.725 24.7202 3 26.8652 3C29.0102 3 30.7352 4.74 30.7352 6.87C30.7202 8.97 29.0702 10.665 27.0002 10.74ZM8.95515 10.74C9.04515 10.725 9.15015 10.725 9.24015 10.74C11.3102 10.665 12.9602 8.97 12.9602 6.87C12.9602 4.725 11.2352 3 9.09015 3C6.94515 3 5.22015 4.74 5.22015 6.87C5.23515 8.97 6.88515 10.665 8.95515 10.74ZM18.0002 21.945C17.9102 21.93 17.8052 21.93 17.7152 21.945C15.6452 21.87 13.9952 20.175 13.9952 18.075C13.9952 15.93 15.7202 14.205 17.8652 14.205C20.0102 14.205 21.7352 15.945 21.7352 18.075C21.7202 20.175 20.0702 21.885 18.0002 21.945ZM13.6352 26.67C11.5202 28.08 11.5202 30.39 13.6352 31.8C16.0352 33.405 19.9652 33.405 22.3652 31.8C24.4802 30.39 24.4802 28.08 22.3652 26.67C19.9802 25.08 16.0352 25.08 13.6352 26.67Z"
    stroke="#5552FF"
    stroke-width="2.5"
    stroke-linecap="round"
    stroke-linejoin="round"
  />
</svg>
