<svg
  width="64"
  height="65"
  viewBox="0 0 64 65"
  fill="none"
  xmlns="http://www.w3.org/2000/svg"
>
  <g clip-path="url(#clip0_13332_4032)">
    <path
      d="M21.9997 64.4679H0V7.46872C0 3.60257 3.13374 0.468826 6.9999 0.468826C10.866 0.468826 13.9998 3.60257 13.9998 7.46872V8.46871H9.99985V7.46872C9.99985 5.81201 8.65661 4.46877 6.9999 4.46877C5.34318 4.46877 3.99994 5.81201 3.99994 7.46872V60.4679H21.9997V64.4679Z"
      fill="#BFC9D1"
    />
    <path
      d="M3.99994 60.4679V26.4684H0V64.4678L3.99994 60.4679Z"
      fill="#AAB8C1"
    />
    <path
      d="M55.9992 34.4683H51.9993V32.4684C51.9993 30.2594 50.2083 28.4684 47.9994 28.4684H37.9995V24.4685H47.9994C52.4177 24.4685 55.9992 28.05 55.9992 32.4684V34.4683Z"
      fill="#57565C"
    />
    <path
      d="M39.9995 40.4683H51.9993V52.4681H39.9995V40.4683Z"
      fill="#787680"
    />
    <path
      d="M57.9991 45.038H36.5996L24.9098 25.5564C23.2047 22.7151 24.1261 19.0296 26.9674 17.3246C29.8091 15.6195 33.4946 16.5409 35.1997 19.3826L43.3993 33.0382H57.9991C61.3126 33.0382 63.9991 35.7247 63.9991 39.0381C63.9991 42.352 61.3126 45.038 57.9991 45.038Z"
      fill="#FF7761"
    />
    <path d="M8 28.4684H12V36.4684H8V28.4684Z" fill="#C8D5E8" />
    <path
      d="M55.9992 64.4679H19.9997V57.074L16.9299 52.4681H0V34.4684H24.0914L33.0913 48.4682H55.9992V64.4679Z"
      fill="#D7E1F2"
    />
    <path
      d="M17.4416 30.4684H0V14.4687H17.2258C18.5129 14.4667 19.7219 15.0844 20.4748 16.1278C21.2282 17.1718 21.4328 18.514 21.0256 19.7347L17.4416 30.4684Z"
      fill="#57565C"
    />
    <path d="M0 26.4684V30.4683H17.4416L18.7736 26.4684H0Z" fill="#2D2D30" />
    <path d="M20 60.4679H55.9995V64.4679H20V60.4679Z" fill="#C8D5E8" />
    <path
      d="M19.9997 53.0741L16.9299 48.4682H0V52.4681H16.9299L19.9997 57.074V53.0741Z"
      fill="#C8D5E8"
    />
    <path
      d="M57.9991 41.038H41.1312C38.3212 41.038 35.7172 39.5639 34.2714 37.1543L24.9117 21.5544C24.714 21.2214 24.5489 20.8699 24.4195 20.5047C23.8238 22.177 24.004 24.0285 24.9117 25.5544L36.5995 45.038H57.3751C59.8995 45.0834 62.2334 43.7026 63.4092 41.4682C64.1103 40.0927 64.1914 38.4829 63.6309 37.0444C62.7847 39.4306 60.5313 41.0288 57.9991 41.038Z"
      fill="#FC6454"
    />
    <path d="M12 18.4686H16V22.4686H12V18.4686Z" fill="white" />
    <path
      d="M27.2441 21.8328L30.6357 19.7127L32.7559 23.1048L29.3638 25.2249L27.2441 21.8328Z"
      fill="white"
    />
    <path
      d="M31.2437 27.8327L34.6357 25.7126L36.7559 29.1047L33.3638 31.2248L31.2437 27.8327Z"
      fill="white"
    />
  </g>
  <defs>
    <clipPath id="clip0_13332_4032">
      <rect
        width="64"
        height="64"
        fill="white"
        transform="translate(0 0.467896)"
      />
    </clipPath>
  </defs>
</svg>
