<svg
  width="64"
  height="65"
  viewBox="0 0 64 65"
  fill="none"
  xmlns="http://www.w3.org/2000/svg"
>
  <g clip-path="url(#clip0_13332_3089)">
    <path d="M26 40.4679H38V56.4679H26V40.4679Z" fill="#57565C" />
    <path
      d="M21.7998 35.3619L18.2202 33.5739L22.7642 24.4679H38C39.1045 24.4679 40 25.3634 40 26.4679C40 27.5724 39.1045 28.4679 38 28.4679H25.2358L21.7998 35.3619Z"
      fill="#BFC9D1"
    />
    <path
      d="M12 24.4679H8V8.4679H12C16.4185 8.4679 20 12.0494 20 16.4679C20 20.8864 16.4185 24.4679 12 24.4679Z"
      fill="#57565C"
    />
    <path d="M44 0.467896H64V64.4679H44V0.467896Z" fill="#FFDA6B" />
    <path
      d="M52 64.4679H12V62.4679C12.0068 56.9479 16.48 52.4747 22 52.4679H42C47.52 52.4747 51.9932 56.9479 52 62.4679V64.4679Z"
      fill="#BFC9D1"
    />
    <path
      d="M54.7339 52.65C53.4868 52.65 52.271 52.2604 51.2559 51.5358L41.3599 44.4679H15.0918L0 27.2198V14.4679C0 11.1544 2.68652 8.4679 6 8.4679H12V22.316L20.9058 32.4679H44.6221L58.1162 41.7457C60.0801 43.0948 61.0552 45.4811 60.5977 47.8195C60.1401 50.1578 58.3374 52.0006 56.0098 52.5099C55.5913 52.6031 55.1631 52.65 54.7339 52.65Z"
      fill="#D7DEE2"
    />
    <path d="M52 20.4679H56V24.4679H52V20.4679Z" fill="#57565C" />
    <path d="M52 28.4679H56V32.4679H52V28.4679Z" fill="#57565C" />
    <path
      d="M59.9199 45.6378C59.0806 47.1046 57.6606 48.1476 56.0098 48.5099C55.5913 48.6031 55.1631 48.65 54.7339 48.65C53.4868 48.65 52.271 48.2604 51.2559 47.5358L41.3599 40.4679H15.0918L0 23.2198V27.2198L15.0918 44.4679H41.3599L51.2559 51.5358C52.271 52.2604 53.4868 52.65 54.7339 52.65C55.1631 52.65 55.5913 52.6031 56.0098 52.5099C57.6812 52.1505 59.1157 51.087 59.9448 49.5924C60.7739 48.0978 60.9175 46.318 60.3379 44.7101C60.2261 45.0309 60.0864 45.3414 59.9199 45.6378Z"
      fill="#BFC9D1"
    />
    <path d="M4 12.4679H8V16.4679H4V12.4679Z" fill="white" />
    <path d="M48 4.4679H52V8.4679H48V4.4679Z" fill="white" />
  </g>
  <defs>
    <clipPath id="clip0_13332_3089">
      <rect
        width="64"
        height="64"
        fill="white"
        transform="translate(0 0.467896)"
      />
    </clipPath>
  </defs>
</svg>
