<svg
  width="64"
  height="65"
  viewBox="0 0 64 65"
  fill="none"
  xmlns="http://www.w3.org/2000/svg"
>
  <g clip-path="url(#clip0_13332_2865)">
    <path
      d="M43.3862 64.4678H17.3868V56.9079L14.5651 57.468C12.8029 57.821 10.9758 57.3654 9.58571 56.2268C8.19561 55.0886 7.3885 53.387 7.38704 51.5902V46.4682H0.501465L7.38704 28.1049V25.4687C7.38704 11.662 18.5796 0.46936 32.3864 0.46936C46.1932 0.46936 57.3858 11.662 57.3858 25.4687V34.9407C57.4048 41.5748 54.7682 47.9404 50.0642 52.618L43.3862 59.296V64.4678Z"
      fill="#FFD5CA"
    />
    <path
      d="M43.3863 64.4678H33.3865C28.9687 64.4678 25.3867 60.8863 25.3867 56.468V36.4684H57.424L57.0642 38.7765C56.2683 44.0195 53.8157 48.87 50.0643 52.618L43.3863 59.296V64.4678Z"
      fill="#8D6E63"
    />
    <path
      d="M57.386 26.2187V34.9485C57.385 38.526 56.6072 42.0611 55.1063 45.3086L54.5863 46.4682C54.5863 46.4682 32.4066 46.3881 32.3866 46.4082C32.0868 46.3481 31.7865 46.2885 31.5068 46.2285C27.9175 45.3686 25.3863 42.1592 25.3868 38.4684V34.3948C25.3912 27.912 21.4831 22.0679 15.4911 19.5949L9.00732 16.9289L9.42724 15.5691C13.8158 5.39989 24.3697 -0.672226 35.3665 0.645612C48.1016 2.40436 57.5384 13.364 57.386 26.2187Z"
      fill="#BD998E"
    />
    <path
      d="M57.3863 46.4682H39.3867V32.4686H57.3863C60.9633 32.7694 63.6361 35.8875 63.3861 39.4684C63.6361 43.0499 60.9633 46.1675 57.3863 46.4682Z"
      fill="#8D6E63"
    />
    <path
      d="M45.3864 39.4684C45.3864 35.6028 42.7005 32.4686 39.3866 32.4686C36.0732 32.4686 33.3867 35.6028 33.3867 39.4684C33.3867 43.3345 36.0732 46.4682 39.3866 46.4682C42.7005 46.4682 45.3864 43.3345 45.3864 39.4684Z"
      fill="#F48FB1"
    />
    <path
      d="M57.3863 64.4678H39.3867V50.4682H57.3863C60.9633 50.7689 63.6361 53.887 63.3861 57.468C63.6361 61.0494 60.9633 64.167 57.3863 64.4678Z"
      fill="#BD998E"
    />
    <path
      d="M45.3864 57.468C45.3864 53.6024 42.7005 50.4682 39.3866 50.4682C36.0732 50.4682 33.3867 53.6024 33.3867 57.468C33.3867 61.3341 36.0732 64.4678 39.3866 64.4678C42.7005 64.4678 45.3864 61.3341 45.3864 57.468Z"
      fill="#F48FB1"
    />
    <path d="M37.3867 8.46918H41.3867V12.4692H37.3867V8.46918Z" fill="white" />
    <path d="M45.3862 16.469H49.3862V20.469H45.3862V16.469Z" fill="white" />
    <path
      d="M39.3867 36.4685C42.2108 36.635 44.5638 38.6921 45.1067 41.4684C45.2845 40.8165 45.3782 40.1442 45.3865 39.4684C45.6365 35.8875 42.9637 32.7694 39.3867 32.4686C35.8096 32.7694 33.1368 35.8875 33.3868 39.4684C33.3951 40.1442 33.4893 40.8165 33.6671 41.4684C34.2095 38.6921 36.5625 36.635 39.3867 36.4685Z"
      fill="#F8BBD0"
    />
    <path
      d="M39.3867 54.4681C42.2108 54.6346 44.5638 56.6916 45.1067 59.4679C45.2845 58.8161 45.3782 58.1437 45.3865 57.468C45.6365 53.887 42.9637 50.7689 39.3867 50.4682C35.8096 50.7689 33.1368 53.887 33.3868 57.468C33.3951 58.1437 33.4893 58.8161 33.6671 59.4679C34.2095 56.6916 36.5625 54.6346 39.3867 54.4681Z"
      fill="#F8BBD0"
    />
  </g>
  <defs>
    <clipPath id="clip0_13332_2865">
      <rect
        width="64"
        height="64"
        fill="white"
        transform="translate(0 0.467896)"
      />
    </clipPath>
  </defs>
</svg>
