<svg
  width="64"
  height="65"
  viewBox="0 0 64 65"
  fill="none"
  xmlns="http://www.w3.org/2000/svg"
>
  <g clip-path="url(#clip0_13332_2509)">
    <path
      d="M48.936 64.4679H15.064L17.9438 54.3839L14.7559 38.4479C14.4624 36.9791 13.3726 35.797 11.9321 35.3859L0 31.9757V18.1061L21.6699 21.7179C22.25 21.8151 22.8433 21.652 23.292 21.2721C23.7407 20.8922 24 20.3341 24 19.7457V16.4679H40V19.7457C40 20.3341 40.2593 20.8922 40.708 21.2721C41.1567 21.652 41.75 21.8151 42.3301 21.7179L64 18.1061V31.9757L52.0679 35.3859C50.6274 35.797 49.5376 36.9791 49.2441 38.4479L46.0562 54.3839L48.936 64.4679Z"
      fill="#FFD5CA"
    />
    <path
      d="M38 52.4679C38 48.0494 35.3135 44.4679 32 44.4679C28.6865 44.4679 26 48.0494 26 52.4679C26 56.8864 28.6865 60.4679 32 60.4679C35.3135 60.4679 38 56.8864 38 52.4679Z"
      fill="#57565C"
    />
    <path
      d="M38 34.4679C38 30.0494 35.3135 26.4679 32 26.4679C28.6865 26.4679 26 30.0494 26 34.4679C26 38.8864 28.6865 42.4679 32 42.4679C35.3135 42.4679 38 38.8864 38 34.4679Z"
      fill="#57565C"
    />
    <path
      d="M24 16.4679V19.7457C23.9985 20.3273 23.7437 20.8795 23.3022 21.2579C22.8613 21.6368 22.2769 21.8043 21.7021 21.7179C24.1006 23.5026 27.0103 24.4669 30 24.4679H34C36.9897 24.4669 39.8994 23.5026 42.2979 21.7179C41.7231 21.8043 41.1387 21.6368 40.6978 21.2579C40.2563 20.8795 40.0015 20.3273 40 19.7457V16.4679H24Z"
      fill="#FCBCA9"
    />
    <path
      d="M34 20.4679H30C24.4771 20.4679 20 15.9908 20 10.4679C20 6.04944 23.5815 2.4679 28 2.4679H36C40.4185 2.4679 44 6.04944 44 10.4679C44 15.9908 39.5229 20.4679 34 20.4679Z"
      fill="#B3E5FC"
    />
    <path
      d="M23.9761 14.5177C19.5654 14.5045 15.9976 10.9244 16 6.51379V0.467896H48V3.44983C47.9912 6.12561 46.2197 8.47522 43.6499 9.21985L26.2002 14.2057C25.4766 14.4127 24.728 14.5177 23.9761 14.5177Z"
      fill="#E1F5FE"
    />
    <path d="M30 32.4679H34V36.4679H30V32.4679Z" fill="white" />
    <path d="M30 50.4679H34V54.4679H30V50.4679Z" fill="white" />
  </g>
  <defs>
    <clipPath id="clip0_13332_2509">
      <rect
        width="64"
        height="64"
        fill="white"
        transform="translate(0 0.467896)"
      />
    </clipPath>
  </defs>
</svg>
