<svg
  width="64"
  height="65"
  viewBox="0 0 64 65"
  fill="none"
  xmlns="http://www.w3.org/2000/svg"
>
  <g clip-path="url(#clip0_13332_744)">
    <path
      d="M35.9974 64.4677H0V50.4687C0 40.5285 8.05851 32.47 17.9987 32.47C27.9389 32.47 35.9974 40.5285 35.9974 50.4687V64.4677Z"
      fill="#FFD5CA"
    />
    <path
      d="M17.9988 60.468C14.9038 60.4392 11.8586 59.6859 9.10734 58.2685L7.99951 57.7065V34.4699C7.99951 28.9478 12.4762 24.4706 17.9988 24.4706C23.5214 24.4706 27.9981 28.9478 27.9981 34.4699V57.7065L26.8903 58.2602C24.1395 59.6805 21.0943 60.4368 17.9988 60.468Z"
      fill="#FF7761"
    />
    <path
      d="M15.5992 51.9569L27.9503 33.9782C27.7399 28.525 23.188 24.2523 17.7323 24.3866C12.2766 24.5214 7.94102 29.0132 7.99961 34.4699V38.7977L15.5992 51.9569Z"
      fill="#FC6454"
    />
    <path
      d="M15.8909 44.4653L6.0415 27.4045L28.8421 25.6126L15.8909 44.4653Z"
      fill="#57565C"
    />
    <path
      d="M23.8198 26.2029L37.6763 18.2044L39.6756 21.6685L25.8197 29.667L23.8198 26.2029Z"
      fill="#D7DEE2"
    />
    <path
      d="M32.4795 21.2027L37.6754 18.2034L39.6753 21.6671L34.4794 24.6669L32.4795 21.2027Z"
      fill="#BFC9D1"
    />
    <path
      d="M41.9427 29.5962L31.9434 12.2756L50.9962 1.27249C52.375 0.47567 54.0141 0.260354 55.552 0.672922C57.09 1.08549 58.4005 2.09225 59.1958 3.47204L63.1956 10.4037C63.9919 11.7825 64.2077 13.4215 63.7951 14.9595C63.3821 16.4975 62.3753 17.8079 60.9955 18.6033L41.9427 29.5962Z"
      fill="#57565C"
    />
    <path
      d="M56.2619 17.327C48.3528 21.8946 38.2388 19.1829 33.6757 11.2718L31.9434 12.2717L41.9426 29.5923L60.9935 18.5931C63.509 17.1444 64.6222 14.0992 63.6335 11.3695C63.1594 12.7297 56.2619 17.327 56.2619 17.327Z"
      fill="#2D2D30"
    />
    <path d="M19.9985 46.469H23.9983V50.4687H19.9985V46.469Z" fill="white" />
    <path d="M51.9961 4.472H55.9958V8.47172H51.9961V4.472Z" fill="white" />
  </g>
  <defs>
    <clipPath id="clip0_13332_744">
      <rect
        width="64"
        height="64"
        fill="white"
        transform="translate(0 0.467896)"
      />
    </clipPath>
  </defs>
</svg>
