<svg
  width="64"
  height="65"
  viewBox="0 0 64 65"
  fill="none"
  xmlns="http://www.w3.org/2000/svg"
>
  <g clip-path="url(#clip0_13332_2274)">
    <path
      d="M62 25.4679C62 11.6608 48.5684 0.467896 32 0.467896C15.4316 0.467896 2 11.6608 2 25.4679C2 39.275 15.4316 50.4679 32 50.4679C48.5684 50.4679 62 39.275 62 25.4679Z"
      fill="#D1C4E9"
    />
    <path
      d="M48.2798 4.48792C45.4551 2.9635 42.4233 1.85852 39.2798 1.20813C29.0439 3.30481 20.6694 10.6383 17.2402 20.5079L21.04 21.7877C22.5405 17.3556 25.2671 13.4401 28.9038 10.4957C29.0762 10.4957 29.2441 10.4679 29.416 10.4679C35.4902 10.3727 40.7446 14.6793 41.8442 20.6539L45.7998 20.0421C44.8037 13.8414 40.2725 8.797 34.2139 7.14368C37.9404 5.37415 42.0151 4.46008 46.1401 4.4679C46.46 4.4679 47.4199 4.4679 48.2798 4.48792Z"
      fill="#9575CD"
    />
    <path
      d="M6 37.8859C12.1138 46.0475 21.8057 50.7379 32 50.4679C42.1943 50.7379 51.8862 46.0475 58 37.8859V36.4679C58 22.1085 46.3594 10.4679 32 10.4679C17.6406 10.4679 6 22.1085 6 36.4679V37.8859Z"
      fill="#B39DDB"
    />
    <path
      d="M32 64.4679C19.8555 64.4537 10.0142 54.6124 10 42.4679V36.4679C10 24.3175 19.8496 14.4679 32 14.4679C44.1504 14.4679 54 24.3175 54 36.4679V42.4679C53.9858 54.6124 44.1445 64.4537 32 64.4679Z"
      fill="#E1F5FE"
    />
    <path
      d="M40 50.4679C40 47.1544 36.4185 44.4679 32 44.4679C27.5815 44.4679 24 47.1544 24 50.4679C24 53.7814 27.5815 56.4679 32 56.4679C36.4185 56.4679 40 53.7814 40 50.4679Z"
      fill="#FFD5CA"
    />
    <path
      d="M30 35.4679C30 39.3341 26.8662 42.4679 23 42.4679C19.1338 42.4679 16 39.3341 16 35.4679C16 31.6017 19.1338 28.4679 23 28.4679C26.8662 28.4679 30 31.6017 30 35.4679Z"
      fill="#FFD5CA"
    />
    <path
      d="M48 35.4679C48 39.3341 44.8662 42.4679 41 42.4679C37.1338 42.4679 34 39.3341 34 35.4679C34 31.6017 37.1338 28.4679 41 28.4679C44.8662 28.4679 48 31.6017 48 35.4679Z"
      fill="#FFD5CA"
    />
    <path
      d="M32 60.4679C19.8555 60.4537 10.0142 50.6124 10 38.4679V42.4679C10 54.6183 19.8496 64.4679 32 64.4679C44.1504 64.4679 54 54.6183 54 42.4679V38.4679C53.9858 50.6124 44.1445 60.4537 32 60.4679Z"
      fill="#B3E5FC"
    />
    <path d="M46 10.4679H50V14.4679H46V10.4679Z" fill="white" />
    <path d="M16 8.4679H20V12.4679H16V8.4679Z" fill="white" />
  </g>
  <defs>
    <clipPath id="clip0_13332_2274">
      <rect
        width="64"
        height="64"
        fill="white"
        transform="translate(0 0.467896)"
      />
    </clipPath>
  </defs>
</svg>
